<?xml version="1.0" encoding="utf-8" standalone="no"?>
<!DOCTYPE svg PUBLIC "-//W3C//DTD SVG 1.1//EN"
  "http://www.w3.org/Graphics/SVG/1.1/DTD/svg11.dtd">
<svg xmlns:xlink="http://www.w3.org/1999/xlink" width="460.8pt" height="345.6pt" viewBox="0 0 460.8 345.6" xmlns="http://www.w3.org/2000/svg" version="1.1">
 <metadata>
  <rdf:RDF xmlns:dc="http://purl.org/dc/elements/1.1/" xmlns:cc="http://creativecommons.org/ns#" xmlns:rdf="http://www.w3.org/1999/02/22-rdf-syntax-ns#">
   <cc:Work>
    <dc:type rdf:resource="http://purl.org/dc/dcmitype/StillImage"/>
    <dc:date>2024-03-12T23:13:33.698687</dc:date>
    <dc:format>image/svg+xml</dc:format>
    <dc:creator>
     <cc:Agent>
      <dc:title>Matplotlib v3.8.3, https://matplotlib.org/</dc:title>
     </cc:Agent>
    </dc:creator>
   </cc:Work>
  </rdf:RDF>
 </metadata>
 <defs>
  <style type="text/css">*{stroke-linejoin: round; stroke-linecap: butt}</style>
 </defs>
 <g id="figure_1">
  <g id="patch_1">
   <path d="M 0 345.6 
L 460.8 345.6 
L 460.8 0 
L 0 0 
z
" style="fill: #ffffff"/>
  </g>
  <g id="axes_1">
   <g id="patch_2">
    <path d="M 77.349692 202.254545 
L 94.355282 172.8 
L 60.344102 172.8 
z
" clip-path="url(#p8c17b2621b)" style="fill: #0000ff; stroke: #000000; stroke-linejoin: miter"/>
   </g>
   <g id="patch_3">
    <path d="M 60.344102 172.8 
L 94.355282 172.8 
L 77.349692 143.345455 
z
" clip-path="url(#p8c17b2621b)" style="fill: #0000ff; stroke: #000000; stroke-linejoin: miter"/>
   </g>
   <g id="patch_4">
    <path d="M 94.355282 172.8 
L 111.360872 143.345455 
L 77.349692 143.345455 
z
" clip-path="url(#p8c17b2621b)" style="fill: #ff0000; stroke: #000000; stroke-linejoin: miter"/>
   </g>
   <g id="patch_5">
    <path d="M 77.349692 143.345454 
L 111.360872 143.345454 
L 94.355282 113.890909 
z
" clip-path="url(#p8c17b2621b)" style="fill: #0000ff; stroke: #000000; stroke-linejoin: miter"/>
   </g>
   <g id="patch_6">
    <path d="M 111.360872 143.345454 
L 128.366461 113.890909 
L 94.355282 113.890909 
z
" clip-path="url(#p8c17b2621b)" style="fill: #800080; stroke: #000000; stroke-linejoin: miter"/>
   </g>
   <g id="patch_7">
    <path d="M 94.355282 113.890909 
L 128.366461 113.890909 
L 111.360872 84.436364 
z
" clip-path="url(#p8c17b2621b)" style="fill: #800080; stroke: #000000; stroke-linejoin: miter"/>
   </g>
   <g id="patch_8">
    <path d="M 128.366461 113.890909 
L 145.372051 84.436364 
L 111.360872 84.436364 
z
" clip-path="url(#p8c17b2621b)" style="fill: #0000ff; stroke: #000000; stroke-linejoin: miter"/>
   </g>
   <g id="patch_9">
    <path d="M 111.360872 84.436364 
L 145.372051 84.436364 
L 128.366461 54.981818 
z
" clip-path="url(#p8c17b2621b)" style="fill: #ff0000; stroke: #000000; stroke-linejoin: miter"/>
   </g>
   <g id="patch_10">
    <path d="M 145.372051 84.436364 
L 162.377641 54.981818 
L 128.366461 54.981818 
z
" clip-path="url(#p8c17b2621b)" style="fill: #ff0000; stroke: #000000; stroke-linejoin: miter"/>
   </g>
   <g id="patch_11">
    <path d="M 128.366461 54.981818 
L 162.377641 54.981818 
L 145.372051 25.527273 
z
" clip-path="url(#p8c17b2621b)" style="fill: #0000ff; stroke: #000000; stroke-linejoin: miter"/>
   </g>
   <g id="patch_12">
    <path d="M 162.377641 54.981818 
L 179.383231 25.527273 
L 145.372051 25.527273 
z
" clip-path="url(#p8c17b2621b)" style="fill: #800080; stroke: #000000; stroke-linejoin: miter"/>
   </g>
   <g id="patch_13">
    <path d="M 94.355282 231.709091 
L 111.360872 202.254546 
L 77.349692 202.254546 
z
" clip-path="url(#p8c17b2621b)" style="fill: #0000ff; stroke: #000000; stroke-linejoin: miter"/>
   </g>
   <g id="patch_14">
    <path d="M 77.349692 202.254545 
L 111.360872 202.254545 
L 94.355282 172.8 
z
" clip-path="url(#p8c17b2621b)" style="fill: #008000; stroke: #000000; stroke-linejoin: miter"/>
   </g>
   <g id="patch_15">
    <path d="M 111.360872 202.254545 
L 128.366461 172.8 
L 94.355282 172.8 
z
" clip-path="url(#p8c17b2621b)" style="fill: #ffa500; stroke: #000000; stroke-linejoin: miter"/>
   </g>
   <g id="patch_16">
    <path d="M 94.355282 172.8 
L 128.366461 172.8 
L 111.360872 143.345455 
z
" clip-path="url(#p8c17b2621b)" style="fill: #ffa500; stroke: #000000; stroke-linejoin: miter"/>
   </g>
   <g id="patch_17">
    <path d="M 128.366461 172.8 
L 145.372051 143.345455 
L 111.360872 143.345455 
z
" clip-path="url(#p8c17b2621b)" style="fill: #008000; stroke: #000000; stroke-linejoin: miter"/>
   </g>
   <g id="patch_18">
    <path d="M 111.360872 143.345454 
L 145.372051 143.345454 
L 128.366461 113.890909 
z
" clip-path="url(#p8c17b2621b)" style="fill: #800080; stroke: #000000; stroke-linejoin: miter"/>
   </g>
   <g id="patch_19">
    <path d="M 145.372051 143.345454 
L 162.377641 113.890909 
L 128.366461 113.890909 
z
" clip-path="url(#p8c17b2621b)" style="fill: #ff0000; stroke: #000000; stroke-linejoin: miter"/>
   </g>
   <g id="patch_20">
    <path d="M 128.366461 113.890909 
L 162.377641 113.890909 
L 145.372051 84.436364 
z
" clip-path="url(#p8c17b2621b)" style="fill: #008000; stroke: #000000; stroke-linejoin: miter"/>
   </g>
   <g id="patch_21">
    <path d="M 162.377641 113.890909 
L 179.383231 84.436364 
L 145.372051 84.436364 
z
" clip-path="url(#p8c17b2621b)" style="fill: #ffa500; stroke: #000000; stroke-linejoin: miter"/>
   </g>
   <g id="patch_22">
    <path d="M 145.372051 84.436364 
L 179.383231 84.436364 
L 162.377641 54.981818 
z
" clip-path="url(#p8c17b2621b)" style="fill: #008000; stroke: #000000; stroke-linejoin: miter"/>
   </g>
   <g id="patch_23">
    <path d="M 179.383231 84.436364 
L 196.38882 54.981818 
L 162.377641 54.981818 
z
" clip-path="url(#p8c17b2621b)" style="fill: #008000; stroke: #000000; stroke-linejoin: miter"/>
   </g>
   <g id="patch_24">
    <path d="M 162.377641 54.981818 
L 196.38882 54.981818 
L 179.383231 25.527273 
z
" clip-path="url(#p8c17b2621b)" style="fill: #ff0000; stroke: #000000; stroke-linejoin: miter"/>
   </g>
   <g id="patch_25">
    <path d="M 196.38882 54.981818 
L 213.39441 25.527273 
L 179.383231 25.527273 
z
" clip-path="url(#p8c17b2621b)" style="fill: #ff0000; stroke: #000000; stroke-linejoin: miter"/>
   </g>
   <g id="patch_26">
    <path d="M 111.360872 261.163636 
L 128.366461 231.709091 
L 94.355282 231.709091 
z
" clip-path="url(#p8c17b2621b)" style="fill: #ffa500; stroke: #000000; stroke-linejoin: miter"/>
   </g>
   <g id="patch_27">
    <path d="M 94.355282 231.709091 
L 128.366461 231.709091 
L 111.360872 202.254546 
z
" clip-path="url(#p8c17b2621b)" style="fill: #ffa500; stroke: #000000; stroke-linejoin: miter"/>
   </g>
   <g id="patch_28">
    <path d="M 128.366461 231.709091 
L 145.372051 202.254546 
L 111.360872 202.254546 
z
" clip-path="url(#p8c17b2621b)" style="fill: #0000ff; stroke: #000000; stroke-linejoin: miter"/>
   </g>
   <g id="patch_29">
    <path d="M 111.360872 202.254545 
L 145.372051 202.254545 
L 128.366461 172.8 
z
" clip-path="url(#p8c17b2621b)" style="fill: #ff0000; stroke: #000000; stroke-linejoin: miter"/>
   </g>
   <g id="patch_30">
    <path d="M 145.372051 202.254545 
L 162.377641 172.8 
L 128.366461 172.8 
z
" clip-path="url(#p8c17b2621b)" style="fill: #800080; stroke: #000000; stroke-linejoin: miter"/>
   </g>
   <g id="patch_31">
    <path d="M 128.366461 172.8 
L 162.377641 172.8 
L 145.372051 143.345455 
z
" clip-path="url(#p8c17b2621b)" style="fill: #0000ff; stroke: #000000; stroke-linejoin: miter"/>
   </g>
   <g id="patch_32">
    <path d="M 162.377641 172.8 
L 179.383231 143.345455 
L 145.372051 143.345455 
z
" clip-path="url(#p8c17b2621b)" style="fill: #ffa500; stroke: #000000; stroke-linejoin: miter"/>
   </g>
   <g id="patch_33">
    <path d="M 145.372051 143.345454 
L 179.383231 143.345454 
L 162.377641 113.890909 
z
" clip-path="url(#p8c17b2621b)" style="fill: #008000; stroke: #000000; stroke-linejoin: miter"/>
   </g>
   <g id="patch_34">
    <path d="M 179.383231 143.345454 
L 196.38882 113.890909 
L 162.377641 113.890909 
z
" clip-path="url(#p8c17b2621b)" style="fill: #0000ff; stroke: #000000; stroke-linejoin: miter"/>
   </g>
   <g id="patch_35">
    <path d="M 162.377641 113.890909 
L 196.38882 113.890909 
L 179.383231 84.436364 
z
" clip-path="url(#p8c17b2621b)" style="fill: #800080; stroke: #000000; stroke-linejoin: miter"/>
   </g>
   <g id="patch_36">
    <path d="M 196.38882 113.890909 
L 213.39441 84.436364 
L 179.383231 84.436364 
z
" clip-path="url(#p8c17b2621b)" style="fill: #0000ff; stroke: #000000; stroke-linejoin: miter"/>
   </g>
   <g id="patch_37">
    <path d="M 179.383231 84.436364 
L 213.39441 84.436364 
L 196.38882 54.981818 
z
" clip-path="url(#p8c17b2621b)" style="fill: #0000ff; stroke: #000000; stroke-linejoin: miter"/>
   </g>
   <g id="patch_38">
    <path d="M 213.39441 84.436364 
L 230.4 54.981818 
L 196.38882 54.981818 
z
" clip-path="url(#p8c17b2621b)" style="fill: #008000; stroke: #000000; stroke-linejoin: miter"/>
   </g>
   <g id="patch_39">
    <path d="M 196.38882 54.981818 
L 230.4 54.981818 
L 213.39441 25.527273 
z
" clip-path="url(#p8c17b2621b)" style="fill: #800080; stroke: #000000; stroke-linejoin: miter"/>
   </g>
   <g id="patch_40">
    <path d="M 230.4 54.981818 
L 247.40559 25.527273 
L 213.39441 25.527273 
z
" clip-path="url(#p8c17b2621b)" style="fill: #0000ff; stroke: #000000; stroke-linejoin: miter"/>
   </g>
   <g id="patch_41">
    <path d="M 128.366461 290.618182 
L 145.372051 261.163636 
L 111.360872 261.163636 
z
" clip-path="url(#p8c17b2621b)" style="fill: #008000; stroke: #000000; stroke-linejoin: miter"/>
   </g>
   <g id="patch_42">
    <path d="M 111.360872 261.163636 
L 145.372051 261.163636 
L 128.366461 231.709091 
z
" clip-path="url(#p8c17b2621b)" style="fill: #0000ff; stroke: #000000; stroke-linejoin: miter"/>
   </g>
   <g id="patch_43">
    <path d="M 145.372051 261.163636 
L 162.377641 231.709091 
L 128.366461 231.709091 
z
" clip-path="url(#p8c17b2621b)" style="fill: #ff0000; stroke: #000000; stroke-linejoin: miter"/>
   </g>
   <g id="patch_44">
    <path d="M 128.366461 231.709091 
L 162.377641 231.709091 
L 145.372051 202.254546 
z
" clip-path="url(#p8c17b2621b)" style="fill: #ff0000; stroke: #000000; stroke-linejoin: miter"/>
   </g>
   <g id="patch_45">
    <path d="M 162.377641 231.709091 
L 179.383231 202.254546 
L 145.372051 202.254546 
z
" clip-path="url(#p8c17b2621b)" style="fill: #008000; stroke: #000000; stroke-linejoin: miter"/>
   </g>
   <g id="patch_46">
    <path d="M 145.372051 202.254545 
L 179.383231 202.254545 
L 162.377641 172.8 
z
" clip-path="url(#p8c17b2621b)" style="fill: #800080; stroke: #000000; stroke-linejoin: miter"/>
   </g>
   <g id="patch_47">
    <path d="M 179.383231 202.254545 
L 196.38882 172.8 
L 162.377641 172.8 
z
" clip-path="url(#p8c17b2621b)" style="fill: #ff0000; stroke: #000000; stroke-linejoin: miter"/>
   </g>
   <g id="patch_48">
    <path d="M 162.377641 172.8 
L 196.38882 172.8 
L 179.383231 143.345455 
z
" clip-path="url(#p8c17b2621b)" style="fill: #ff0000; stroke: #000000; stroke-linejoin: miter"/>
   </g>
   <g id="patch_49">
    <path d="M 196.38882 172.8 
L 213.39441 143.345455 
L 179.383231 143.345455 
z
" clip-path="url(#p8c17b2621b)" style="fill: #800080; stroke: #000000; stroke-linejoin: miter"/>
   </g>
   <g id="patch_50">
    <path d="M 179.383231 143.345454 
L 213.39441 143.345454 
L 196.38882 113.890909 
z
" clip-path="url(#p8c17b2621b)" style="fill: #ff0000; stroke: #000000; stroke-linejoin: miter"/>
   </g>
   <g id="patch_51">
    <path d="M 213.39441 143.345454 
L 230.4 113.890909 
L 196.38882 113.890909 
z
" clip-path="url(#p8c17b2621b)" style="fill: #008000; stroke: #000000; stroke-linejoin: miter"/>
   </g>
   <g id="patch_52">
    <path d="M 196.38882 113.890909 
L 230.4 113.890909 
L 213.39441 84.436364 
z
" clip-path="url(#p8c17b2621b)" style="fill: #ffa500; stroke: #000000; stroke-linejoin: miter"/>
   </g>
   <g id="patch_53">
    <path d="M 230.4 113.890909 
L 247.40559 84.436364 
L 213.39441 84.436364 
z
" clip-path="url(#p8c17b2621b)" style="fill: #ff0000; stroke: #000000; stroke-linejoin: miter"/>
   </g>
   <g id="patch_54">
    <path d="M 213.39441 84.436364 
L 247.40559 84.436364 
L 230.4 54.981818 
z
" clip-path="url(#p8c17b2621b)" style="fill: #ff0000; stroke: #000000; stroke-linejoin: miter"/>
   </g>
   <g id="patch_55">
    <path d="M 247.40559 84.436364 
L 264.41118 54.981818 
L 230.4 54.981818 
z
" clip-path="url(#p8c17b2621b)" style="fill: #800080; stroke: #000000; stroke-linejoin: miter"/>
   </g>
   <g id="patch_56">
    <path d="M 230.4 54.981818 
L 264.41118 54.981818 
L 247.40559 25.527273 
z
" clip-path="url(#p8c17b2621b)" style="fill: #0000ff; stroke: #000000; stroke-linejoin: miter"/>
   </g>
   <g id="patch_57">
    <path d="M 264.41118 54.981818 
L 281.416769 25.527273 
L 247.40559 25.527273 
z
" clip-path="url(#p8c17b2621b)" style="fill: #800080; stroke: #000000; stroke-linejoin: miter"/>
   </g>
   <g id="patch_58">
    <path d="M 145.372051 320.072727 
L 162.377641 290.618182 
L 128.366461 290.618182 
z
" clip-path="url(#p8c17b2621b)" style="fill: #0000ff; stroke: #000000; stroke-linejoin: miter"/>
   </g>
   <g id="patch_59">
    <path d="M 128.366461 290.618182 
L 162.377641 290.618182 
L 145.372051 261.163636 
z
" clip-path="url(#p8c17b2621b)" style="fill: #008000; stroke: #000000; stroke-linejoin: miter"/>
   </g>
   <g id="patch_60">
    <path d="M 162.377641 290.618182 
L 179.383231 261.163636 
L 145.372051 261.163636 
z
" clip-path="url(#p8c17b2621b)" style="fill: #008000; stroke: #000000; stroke-linejoin: miter"/>
   </g>
   <g id="patch_61">
    <path d="M 145.372051 261.163636 
L 179.383231 261.163636 
L 162.377641 231.709091 
z
" clip-path="url(#p8c17b2621b)" style="fill: #ffa500; stroke: #000000; stroke-linejoin: miter"/>
   </g>
   <g id="patch_62">
    <path d="M 179.383231 261.163636 
L 196.38882 231.709091 
L 162.377641 231.709091 
z
" clip-path="url(#p8c17b2621b)" style="fill: #ffa500; stroke: #000000; stroke-linejoin: miter"/>
   </g>
   <g id="patch_63">
    <path d="M 162.377641 231.709091 
L 196.38882 231.709091 
L 179.383231 202.254546 
z
" clip-path="url(#p8c17b2621b)" style="fill: #800080; stroke: #000000; stroke-linejoin: miter"/>
   </g>
   <g id="patch_64">
    <path d="M 196.38882 231.709091 
L 213.39441 202.254546 
L 179.383231 202.254546 
z
" clip-path="url(#p8c17b2621b)" style="fill: #ff0000; stroke: #000000; stroke-linejoin: miter"/>
   </g>
   <g id="patch_65">
    <path d="M 179.383231 202.254545 
L 213.39441 202.254545 
L 196.38882 172.8 
z
" clip-path="url(#p8c17b2621b)" style="fill: #ffa500; stroke: #000000; stroke-linejoin: miter"/>
   </g>
   <g id="patch_66">
    <path d="M 213.39441 202.254545 
L 230.4 172.8 
L 196.38882 172.8 
z
" clip-path="url(#p8c17b2621b)" style="fill: #800080; stroke: #000000; stroke-linejoin: miter"/>
   </g>
   <g id="patch_67">
    <path d="M 196.38882 172.8 
L 230.4 172.8 
L 213.39441 143.345455 
z
" clip-path="url(#p8c17b2621b)" style="fill: #ffa500; stroke: #000000; stroke-linejoin: miter"/>
   </g>
   <g id="patch_68">
    <path d="M 230.4 172.8 
L 247.40559 143.345455 
L 213.39441 143.345455 
z
" clip-path="url(#p8c17b2621b)" style="fill: #ffa500; stroke: #000000; stroke-linejoin: miter"/>
   </g>
   <g id="patch_69">
    <path d="M 213.39441 143.345454 
L 247.40559 143.345454 
L 230.4 113.890909 
z
" clip-path="url(#p8c17b2621b)" style="fill: #0000ff; stroke: #000000; stroke-linejoin: miter"/>
   </g>
   <g id="patch_70">
    <path d="M 247.40559 143.345454 
L 264.41118 113.890909 
L 230.4 113.890909 
z
" clip-path="url(#p8c17b2621b)" style="fill: #ff0000; stroke: #000000; stroke-linejoin: miter"/>
   </g>
   <g id="patch_71">
    <path d="M 230.4 113.890909 
L 264.41118 113.890909 
L 247.40559 84.436364 
z
" clip-path="url(#p8c17b2621b)" style="fill: #ffa500; stroke: #000000; stroke-linejoin: miter"/>
   </g>
   <g id="patch_72">
    <path d="M 264.41118 113.890909 
L 281.416769 84.436364 
L 247.40559 84.436364 
z
" clip-path="url(#p8c17b2621b)" style="fill: #ffa500; stroke: #000000; stroke-linejoin: miter"/>
   </g>
   <g id="patch_73">
    <path d="M 247.40559 84.436364 
L 281.416769 84.436364 
L 264.41118 54.981818 
z
" clip-path="url(#p8c17b2621b)" style="fill: #008000; stroke: #000000; stroke-linejoin: miter"/>
   </g>
   <g id="patch_74">
    <path d="M 281.416769 84.436364 
L 298.422359 54.981818 
L 264.41118 54.981818 
z
" clip-path="url(#p8c17b2621b)" style="fill: #0000ff; stroke: #000000; stroke-linejoin: miter"/>
   </g>
   <g id="patch_75">
    <path d="M 264.41118 54.981818 
L 298.422359 54.981818 
L 281.416769 25.527273 
z
" clip-path="url(#p8c17b2621b)" style="fill: #ff0000; stroke: #000000; stroke-linejoin: miter"/>
   </g>
   <g id="patch_76">
    <path d="M 298.422359 54.981818 
L 315.427949 25.527273 
L 281.416769 25.527273 
z
" clip-path="url(#p8c17b2621b)" style="fill: #800080; stroke: #000000; stroke-linejoin: miter"/>
   </g>
   <g id="patch_77">
    <path d="M 145.372051 320.072727 
L 179.383231 320.072727 
L 162.377641 290.618182 
z
" clip-path="url(#p8c17b2621b)" style="fill: #ffa500; stroke: #000000; stroke-linejoin: miter"/>
   </g>
   <g id="patch_78">
    <path d="M 179.383231 320.072727 
L 196.38882 290.618182 
L 162.377641 290.618182 
z
" clip-path="url(#p8c17b2621b)" style="fill: #ff0000; stroke: #000000; stroke-linejoin: miter"/>
   </g>
   <g id="patch_79">
    <path d="M 162.377641 290.618182 
L 196.38882 290.618182 
L 179.383231 261.163636 
z
" clip-path="url(#p8c17b2621b)" style="fill: #ff0000; stroke: #000000; stroke-linejoin: miter"/>
   </g>
   <g id="patch_80">
    <path d="M 196.38882 290.618182 
L 213.39441 261.163636 
L 179.383231 261.163636 
z
" clip-path="url(#p8c17b2621b)" style="fill: #800080; stroke: #000000; stroke-linejoin: miter"/>
   </g>
   <g id="patch_81">
    <path d="M 179.383231 261.163636 
L 213.39441 261.163636 
L 196.38882 231.709091 
z
" clip-path="url(#p8c17b2621b)" style="fill: #0000ff; stroke: #000000; stroke-linejoin: miter"/>
   </g>
   <g id="patch_82">
    <path d="M 213.39441 261.163636 
L 230.4 231.709091 
L 196.38882 231.709091 
z
" clip-path="url(#p8c17b2621b)" style="fill: #ffa500; stroke: #000000; stroke-linejoin: miter"/>
   </g>
   <g id="patch_83">
    <path d="M 196.38882 231.709091 
L 230.4 231.709091 
L 213.39441 202.254546 
z
" clip-path="url(#p8c17b2621b)" style="fill: #008000; stroke: #000000; stroke-linejoin: miter"/>
   </g>
   <g id="patch_84">
    <path d="M 230.4 231.709091 
L 247.40559 202.254546 
L 213.39441 202.254546 
z
" clip-path="url(#p8c17b2621b)" style="fill: #0000ff; stroke: #000000; stroke-linejoin: miter"/>
   </g>
   <g id="patch_85">
    <path d="M 213.39441 202.254545 
L 247.40559 202.254545 
L 230.4 172.8 
z
" clip-path="url(#p8c17b2621b)" style="fill: #800080; stroke: #000000; stroke-linejoin: miter"/>
   </g>
   <g id="patch_86">
    <path d="M 247.40559 202.254545 
L 264.41118 172.8 
L 230.4 172.8 
z
" clip-path="url(#p8c17b2621b)" style="fill: #0000ff; stroke: #000000; stroke-linejoin: miter"/>
   </g>
   <g id="patch_87">
    <path d="M 230.4 172.8 
L 264.41118 172.8 
L 247.40559 143.345455 
z
" clip-path="url(#p8c17b2621b)" style="fill: #0000ff; stroke: #000000; stroke-linejoin: miter"/>
   </g>
   <g id="patch_88">
    <path d="M 264.41118 172.8 
L 281.416769 143.345455 
L 247.40559 143.345455 
z
" clip-path="url(#p8c17b2621b)" style="fill: #ffa500; stroke: #000000; stroke-linejoin: miter"/>
   </g>
   <g id="patch_89">
    <path d="M 247.40559 143.345454 
L 281.416769 143.345454 
L 264.41118 113.890909 
z
" clip-path="url(#p8c17b2621b)" style="fill: #008000; stroke: #000000; stroke-linejoin: miter"/>
   </g>
   <g id="patch_90">
    <path d="M 281.416769 143.345454 
L 298.422359 113.890909 
L 264.41118 113.890909 
z
" clip-path="url(#p8c17b2621b)" style="fill: #0000ff; stroke: #000000; stroke-linejoin: miter"/>
   </g>
   <g id="patch_91">
    <path d="M 264.41118 113.890909 
L 298.422359 113.890909 
L 281.416769 84.436364 
z
" clip-path="url(#p8c17b2621b)" style="fill: #800080; stroke: #000000; stroke-linejoin: miter"/>
   </g>
   <g id="patch_92">
    <path d="M 298.422359 113.890909 
L 315.427949 84.436364 
L 281.416769 84.436364 
z
" clip-path="url(#p8c17b2621b)" style="fill: #ff0000; stroke: #000000; stroke-linejoin: miter"/>
   </g>
   <g id="patch_93">
    <path d="M 281.416769 84.436364 
L 315.427949 84.436364 
L 298.422359 54.981818 
z
" clip-path="url(#p8c17b2621b)" style="fill: #0000ff; stroke: #000000; stroke-linejoin: miter"/>
   </g>
   <g id="patch_94">
    <path d="M 315.427949 84.436364 
L 332.433539 54.981818 
L 298.422359 54.981818 
z
" clip-path="url(#p8c17b2621b)" style="fill: #008000; stroke: #000000; stroke-linejoin: miter"/>
   </g>
   <g id="patch_95">
    <path d="M 298.422359 54.981818 
L 332.433539 54.981818 
L 315.427949 25.527273 
z
" clip-path="url(#p8c17b2621b)" style="fill: #800080; stroke: #000000; stroke-linejoin: miter"/>
   </g>
   <g id="patch_96">
    <path d="M 179.383231 320.072727 
L 213.39441 320.072727 
L 196.38882 290.618182 
z
" clip-path="url(#p8c17b2621b)" style="fill: #ff0000; stroke: #000000; stroke-linejoin: miter"/>
   </g>
   <g id="patch_97">
    <path d="M 213.39441 320.072727 
L 230.4 290.618182 
L 196.38882 290.618182 
z
" clip-path="url(#p8c17b2621b)" style="fill: #ffa500; stroke: #000000; stroke-linejoin: miter"/>
   </g>
   <g id="patch_98">
    <path d="M 196.38882 290.618182 
L 230.4 290.618182 
L 213.39441 261.163636 
z
" clip-path="url(#p8c17b2621b)" style="fill: #008000; stroke: #000000; stroke-linejoin: miter"/>
   </g>
   <g id="patch_99">
    <path d="M 230.4 290.618182 
L 247.40559 261.163636 
L 213.39441 261.163636 
z
" clip-path="url(#p8c17b2621b)" style="fill: #008000; stroke: #000000; stroke-linejoin: miter"/>
   </g>
   <g id="patch_100">
    <path d="M 213.39441 261.163636 
L 247.40559 261.163636 
L 230.4 231.709091 
z
" clip-path="url(#p8c17b2621b)" style="fill: #ff0000; stroke: #000000; stroke-linejoin: miter"/>
   </g>
   <g id="patch_101">
    <path d="M 247.40559 261.163636 
L 264.41118 231.709091 
L 230.4 231.709091 
z
" clip-path="url(#p8c17b2621b)" style="fill: #800080; stroke: #000000; stroke-linejoin: miter"/>
   </g>
   <g id="patch_102">
    <path d="M 230.4 231.709091 
L 264.41118 231.709091 
L 247.40559 202.254546 
z
" clip-path="url(#p8c17b2621b)" style="fill: #008000; stroke: #000000; stroke-linejoin: miter"/>
   </g>
   <g id="patch_103">
    <path d="M 264.41118 231.709091 
L 281.416769 202.254546 
L 247.40559 202.254546 
z
" clip-path="url(#p8c17b2621b)" style="fill: #008000; stroke: #000000; stroke-linejoin: miter"/>
   </g>
   <g id="patch_104">
    <path d="M 247.40559 202.254545 
L 281.416769 202.254545 
L 264.41118 172.8 
z
" clip-path="url(#p8c17b2621b)" style="fill: #800080; stroke: #000000; stroke-linejoin: miter"/>
   </g>
   <g id="patch_105">
    <path d="M 281.416769 202.254545 
L 298.422359 172.8 
L 264.41118 172.8 
z
" clip-path="url(#p8c17b2621b)" style="fill: #008000; stroke: #000000; stroke-linejoin: miter"/>
   </g>
   <g id="patch_106">
    <path d="M 264.41118 172.8 
L 298.422359 172.8 
L 281.416769 143.345455 
z
" clip-path="url(#p8c17b2621b)" style="fill: #ff0000; stroke: #000000; stroke-linejoin: miter"/>
   </g>
   <g id="patch_107">
    <path d="M 298.422359 172.8 
L 315.427949 143.345455 
L 281.416769 143.345455 
z
" clip-path="url(#p8c17b2621b)" style="fill: #800080; stroke: #000000; stroke-linejoin: miter"/>
   </g>
   <g id="patch_108">
    <path d="M 281.416769 143.345454 
L 315.427949 143.345454 
L 298.422359 113.890909 
z
" clip-path="url(#p8c17b2621b)" style="fill: #008000; stroke: #000000; stroke-linejoin: miter"/>
   </g>
   <g id="patch_109">
    <path d="M 315.427949 143.345454 
L 332.433539 113.890909 
L 298.422359 113.890909 
z
" clip-path="url(#p8c17b2621b)" style="fill: #008000; stroke: #000000; stroke-linejoin: miter"/>
   </g>
   <g id="patch_110">
    <path d="M 298.422359 113.890909 
L 332.433539 113.890909 
L 315.427949 84.436364 
z
" clip-path="url(#p8c17b2621b)" style="fill: #ffa500; stroke: #000000; stroke-linejoin: miter"/>
   </g>
   <g id="patch_111">
    <path d="M 332.433539 113.890909 
L 349.439128 84.436364 
L 315.427949 84.436364 
z
" clip-path="url(#p8c17b2621b)" style="fill: #ffa500; stroke: #000000; stroke-linejoin: miter"/>
   </g>
   <g id="patch_112">
    <path d="M 315.427949 84.436364 
L 349.439128 84.436364 
L 332.433539 54.981818 
z
" clip-path="url(#p8c17b2621b)" style="fill: #800080; stroke: #000000; stroke-linejoin: miter"/>
   </g>
   <g id="patch_113">
    <path d="M 213.39441 320.072727 
L 247.40559 320.072727 
L 230.4 290.618182 
z
" clip-path="url(#p8c17b2621b)" style="fill: #0000ff; stroke: #000000; stroke-linejoin: miter"/>
   </g>
   <g id="patch_114">
    <path d="M 247.40559 320.072727 
L 264.41118 290.618182 
L 230.4 290.618182 
z
" clip-path="url(#p8c17b2621b)" style="fill: #0000ff; stroke: #000000; stroke-linejoin: miter"/>
   </g>
   <g id="patch_115">
    <path d="M 230.4 290.618182 
L 264.41118 290.618182 
L 247.40559 261.163636 
z
" clip-path="url(#p8c17b2621b)" style="fill: #0000ff; stroke: #000000; stroke-linejoin: miter"/>
   </g>
   <g id="patch_116">
    <path d="M 264.41118 290.618182 
L 281.416769 261.163636 
L 247.40559 261.163636 
z
" clip-path="url(#p8c17b2621b)" style="fill: #008000; stroke: #000000; stroke-linejoin: miter"/>
   </g>
   <g id="patch_117">
    <path d="M 247.40559 261.163636 
L 281.416769 261.163636 
L 264.41118 231.709091 
z
" clip-path="url(#p8c17b2621b)" style="fill: #ffa500; stroke: #000000; stroke-linejoin: miter"/>
   </g>
   <g id="patch_118">
    <path d="M 281.416769 261.163636 
L 298.422359 231.709091 
L 264.41118 231.709091 
z
" clip-path="url(#p8c17b2621b)" style="fill: #0000ff; stroke: #000000; stroke-linejoin: miter"/>
   </g>
   <g id="patch_119">
    <path d="M 264.41118 231.709091 
L 298.422359 231.709091 
L 281.416769 202.254546 
z
" clip-path="url(#p8c17b2621b)" style="fill: #0000ff; stroke: #000000; stroke-linejoin: miter"/>
   </g>
   <g id="patch_120">
    <path d="M 298.422359 231.709091 
L 315.427949 202.254546 
L 281.416769 202.254546 
z
" clip-path="url(#p8c17b2621b)" style="fill: #ff0000; stroke: #000000; stroke-linejoin: miter"/>
   </g>
   <g id="patch_121">
    <path d="M 281.416769 202.254545 
L 315.427949 202.254545 
L 298.422359 172.8 
z
" clip-path="url(#p8c17b2621b)" style="fill: #0000ff; stroke: #000000; stroke-linejoin: miter"/>
   </g>
   <g id="patch_122">
    <path d="M 315.427949 202.254545 
L 332.433539 172.8 
L 298.422359 172.8 
z
" clip-path="url(#p8c17b2621b)" style="fill: #800080; stroke: #000000; stroke-linejoin: miter"/>
   </g>
   <g id="patch_123">
    <path d="M 298.422359 172.8 
L 332.433539 172.8 
L 315.427949 143.345455 
z
" clip-path="url(#p8c17b2621b)" style="fill: #ffa500; stroke: #000000; stroke-linejoin: miter"/>
   </g>
   <g id="patch_124">
    <path d="M 332.433539 172.8 
L 349.439128 143.345455 
L 315.427949 143.345455 
z
" clip-path="url(#p8c17b2621b)" style="fill: #0000ff; stroke: #000000; stroke-linejoin: miter"/>
   </g>
   <g id="patch_125">
    <path d="M 315.427949 143.345454 
L 349.439128 143.345454 
L 332.433539 113.890909 
z
" clip-path="url(#p8c17b2621b)" style="fill: #ff0000; stroke: #000000; stroke-linejoin: miter"/>
   </g>
   <g id="patch_126">
    <path d="M 349.439128 143.345454 
L 366.444718 113.890909 
L 332.433539 113.890909 
z
" clip-path="url(#p8c17b2621b)" style="fill: #800080; stroke: #000000; stroke-linejoin: miter"/>
   </g>
   <g id="patch_127">
    <path d="M 332.433539 113.890909 
L 366.444718 113.890909 
L 349.439128 84.436364 
z
" clip-path="url(#p8c17b2621b)" style="fill: #ffa500; stroke: #000000; stroke-linejoin: miter"/>
   </g>
   <g id="patch_128">
    <path d="M 247.40559 320.072727 
L 281.416769 320.072727 
L 264.41118 290.618182 
z
" clip-path="url(#p8c17b2621b)" style="fill: #ffa500; stroke: #000000; stroke-linejoin: miter"/>
   </g>
   <g id="patch_129">
    <path d="M 281.416769 320.072727 
L 298.422359 290.618182 
L 264.41118 290.618182 
z
" clip-path="url(#p8c17b2621b)" style="fill: #ff0000; stroke: #000000; stroke-linejoin: miter"/>
   </g>
   <g id="patch_130">
    <path d="M 264.41118 290.618182 
L 298.422359 290.618182 
L 281.416769 261.163636 
z
" clip-path="url(#p8c17b2621b)" style="fill: #800080; stroke: #000000; stroke-linejoin: miter"/>
   </g>
   <g id="patch_131">
    <path d="M 298.422359 290.618182 
L 315.427949 261.163636 
L 281.416769 261.163636 
z
" clip-path="url(#p8c17b2621b)" style="fill: #800080; stroke: #000000; stroke-linejoin: miter"/>
   </g>
   <g id="patch_132">
    <path d="M 281.416769 261.163636 
L 315.427949 261.163636 
L 298.422359 231.709091 
z
" clip-path="url(#p8c17b2621b)" style="fill: #ff0000; stroke: #000000; stroke-linejoin: miter"/>
   </g>
   <g id="patch_133">
    <path d="M 315.427949 261.163636 
L 332.433539 231.709091 
L 298.422359 231.709091 
z
" clip-path="url(#p8c17b2621b)" style="fill: #ffa500; stroke: #000000; stroke-linejoin: miter"/>
   </g>
   <g id="patch_134">
    <path d="M 298.422359 231.709091 
L 332.433539 231.709091 
L 315.427949 202.254546 
z
" clip-path="url(#p8c17b2621b)" style="fill: #008000; stroke: #000000; stroke-linejoin: miter"/>
   </g>
   <g id="patch_135">
    <path d="M 332.433539 231.709091 
L 349.439128 202.254546 
L 315.427949 202.254546 
z
" clip-path="url(#p8c17b2621b)" style="fill: #ff0000; stroke: #000000; stroke-linejoin: miter"/>
   </g>
   <g id="patch_136">
    <path d="M 315.427949 202.254545 
L 349.439128 202.254545 
L 332.433539 172.8 
z
" clip-path="url(#p8c17b2621b)" style="fill: #800080; stroke: #000000; stroke-linejoin: miter"/>
   </g>
   <g id="patch_137">
    <path d="M 349.439128 202.254545 
L 366.444718 172.8 
L 332.433539 172.8 
z
" clip-path="url(#p8c17b2621b)" style="fill: #ff0000; stroke: #000000; stroke-linejoin: miter"/>
   </g>
   <g id="patch_138">
    <path d="M 332.433539 172.8 
L 366.444718 172.8 
L 349.439128 143.345455 
z
" clip-path="url(#p8c17b2621b)" style="fill: #ff0000; stroke: #000000; stroke-linejoin: miter"/>
   </g>
   <g id="patch_139">
    <path d="M 366.444718 172.8 
L 383.450308 143.345455 
L 349.439128 143.345455 
z
" clip-path="url(#p8c17b2621b)" style="fill: #008000; stroke: #000000; stroke-linejoin: miter"/>
   </g>
   <g id="patch_140">
    <path d="M 349.439128 143.345454 
L 383.450308 143.345454 
L 366.444718 113.890909 
z
" clip-path="url(#p8c17b2621b)" style="fill: #008000; stroke: #000000; stroke-linejoin: miter"/>
   </g>
   <g id="patch_141">
    <path d="M 281.416769 320.072727 
L 315.427949 320.072727 
L 298.422359 290.618182 
z
" clip-path="url(#p8c17b2621b)" style="fill: #ffa500; stroke: #000000; stroke-linejoin: miter"/>
   </g>
   <g id="patch_142">
    <path d="M 315.427949 320.072727 
L 332.433539 290.618182 
L 298.422359 290.618182 
z
" clip-path="url(#p8c17b2621b)" style="fill: #ffa500; stroke: #000000; stroke-linejoin: miter"/>
   </g>
   <g id="patch_143">
    <path d="M 298.422359 290.618182 
L 332.433539 290.618182 
L 315.427949 261.163636 
z
" clip-path="url(#p8c17b2621b)" style="fill: #008000; stroke: #000000; stroke-linejoin: miter"/>
   </g>
   <g id="patch_144">
    <path d="M 332.433539 290.618182 
L 349.439128 261.163636 
L 315.427949 261.163636 
z
" clip-path="url(#p8c17b2621b)" style="fill: #ffa500; stroke: #000000; stroke-linejoin: miter"/>
   </g>
   <g id="patch_145">
    <path d="M 315.427949 261.163636 
L 349.439128 261.163636 
L 332.433539 231.709091 
z
" clip-path="url(#p8c17b2621b)" style="fill: #800080; stroke: #000000; stroke-linejoin: miter"/>
   </g>
   <g id="patch_146">
    <path d="M 349.439128 261.163636 
L 366.444718 231.709091 
L 332.433539 231.709091 
z
" clip-path="url(#p8c17b2621b)" style="fill: #800080; stroke: #000000; stroke-linejoin: miter"/>
   </g>
   <g id="patch_147">
    <path d="M 332.433539 231.709091 
L 366.444718 231.709091 
L 349.439128 202.254546 
z
" clip-path="url(#p8c17b2621b)" style="fill: #ffa500; stroke: #000000; stroke-linejoin: miter"/>
   </g>
   <g id="patch_148">
    <path d="M 366.444718 231.709091 
L 383.450308 202.254546 
L 349.439128 202.254546 
z
" clip-path="url(#p8c17b2621b)" style="fill: #008000; stroke: #000000; stroke-linejoin: miter"/>
   </g>
   <g id="patch_149">
    <path d="M 349.439128 202.254545 
L 383.450308 202.254545 
L 366.444718 172.8 
z
" clip-path="url(#p8c17b2621b)" style="fill: #008000; stroke: #000000; stroke-linejoin: miter"/>
   </g>
   <g id="patch_150">
    <path d="M 383.450308 202.254545 
L 400.455898 172.8 
L 366.444718 172.8 
z
" clip-path="url(#p8c17b2621b)" style="fill: #ffa500; stroke: #000000; stroke-linejoin: miter"/>
   </g>
   <g id="patch_151">
    <path d="M 366.444718 172.8 
L 400.455898 172.8 
L 383.450308 143.345455 
z
" clip-path="url(#p8c17b2621b)" style="fill: #800080; stroke: #000000; stroke-linejoin: miter"/>
   </g>
  </g>
 </g>
 <defs>
  <clipPath id="p8c17b2621b">
   <rect x="43.338513" y="10.8" width="374.122975" height="324"/>
  </clipPath>
 </defs>
</svg>
