<?xml version="1.0" encoding="utf-8" standalone="no"?>
<!DOCTYPE svg PUBLIC "-//W3C//DTD SVG 1.1//EN"
  "http://www.w3.org/Graphics/SVG/1.1/DTD/svg11.dtd">
<!-- Created with matplotlib (http://matplotlib.org/) -->
<svg height="345pt" version="1.1" viewBox="0 0 460 345" width="460pt" xmlns="http://www.w3.org/2000/svg" xmlns:xlink="http://www.w3.org/1999/xlink">
 <defs>
  <style type="text/css">
*{stroke-linecap:butt;stroke-linejoin:round;}
  </style>
 </defs>
 <g id="figure_1">
  <g id="patch_1">
   <path d="M 0 345.6 
L 460.8 345.6 
L 460.8 0 
L 0 0 
z
" style="fill:#ffffff;"/>
  </g>
  <g id="axes_1">
   <g id="patch_2">
    <path clip-path="url(#p7250ad1f4b)" d="M 97.889365 212.14303 
L 124.391492 166.24 
L 71.387238 166.24 
z
" style="fill:#ffc0cb;stroke:#000000;stroke-linejoin:miter;"/>
   </g>
   <g id="patch_3">
    <path clip-path="url(#p7250ad1f4b)" d="M 71.387238 166.24 
L 124.391492 166.24 
L 97.889365 120.33697 
z
" style="fill:#ffc0cb;stroke:#000000;stroke-linejoin:miter;"/>
   </g>
   <g id="patch_4">
    <path clip-path="url(#p7250ad1f4b)" d="M 124.391492 166.24 
L 150.893619 120.33697 
L 97.889365 120.33697 
z
" style="fill:#800080;stroke:#000000;stroke-linejoin:miter;"/>
   </g>
   <g id="patch_5">
    <path clip-path="url(#p7250ad1f4b)" d="M 97.889365 120.33697 
L 150.893619 120.33697 
L 124.391492 74.433939 
z
" style="fill:#ffc0cb;stroke:#000000;stroke-linejoin:miter;"/>
   </g>
   <g id="patch_6">
    <path clip-path="url(#p7250ad1f4b)" d="M 150.893619 120.33697 
L 177.395746 74.433939 
L 124.391492 74.433939 
z
" style="fill:#ff0000;stroke:#000000;stroke-linejoin:miter;"/>
   </g>
   <g id="patch_7">
    <path clip-path="url(#p7250ad1f4b)" d="M 124.391492 74.433939 
L 177.395746 74.433939 
L 150.893619 28.530909 
z
" style="fill:#800080;stroke:#000000;stroke-linejoin:miter;"/>
   </g>
   <g id="patch_8">
    <path clip-path="url(#p7250ad1f4b)" d="M 177.395746 74.433939 
L 203.897873 28.530909 
L 150.893619 28.530909 
z
" style="fill:#800080;stroke:#000000;stroke-linejoin:miter;"/>
   </g>
   <g id="patch_9">
    <path clip-path="url(#p7250ad1f4b)" d="M 124.391492 258.046061 
L 150.893619 212.14303 
L 97.889365 212.14303 
z
" style="fill:#0000ff;stroke:#000000;stroke-linejoin:miter;"/>
   </g>
   <g id="patch_10">
    <path clip-path="url(#p7250ad1f4b)" d="M 97.889365 212.14303 
L 150.893619 212.14303 
L 124.391492 166.24 
z
" style="fill:#ffa500;stroke:#000000;stroke-linejoin:miter;"/>
   </g>
   <g id="patch_11">
    <path clip-path="url(#p7250ad1f4b)" d="M 150.893619 212.14303 
L 177.395746 166.24 
L 124.391492 166.24 
z
" style="fill:#ffc0cb;stroke:#000000;stroke-linejoin:miter;"/>
   </g>
   <g id="patch_12">
    <path clip-path="url(#p7250ad1f4b)" d="M 124.391492 166.24 
L 177.395746 166.24 
L 150.893619 120.33697 
z
" style="fill:#ff0000;stroke:#000000;stroke-linejoin:miter;"/>
   </g>
   <g id="patch_13">
    <path clip-path="url(#p7250ad1f4b)" d="M 177.395746 166.24 
L 203.897873 120.33697 
L 150.893619 120.33697 
z
" style="fill:#ffc0cb;stroke:#000000;stroke-linejoin:miter;"/>
   </g>
   <g id="patch_14">
    <path clip-path="url(#p7250ad1f4b)" d="M 150.893619 120.33697 
L 203.897873 120.33697 
L 177.395746 74.433939 
z
" style="fill:#800080;stroke:#000000;stroke-linejoin:miter;"/>
   </g>
   <g id="patch_15">
    <path clip-path="url(#p7250ad1f4b)" d="M 203.897873 120.33697 
L 230.4 74.433939 
L 177.395746 74.433939 
z
" style="fill:#ff0000;stroke:#000000;stroke-linejoin:miter;"/>
   </g>
   <g id="patch_16">
    <path clip-path="url(#p7250ad1f4b)" d="M 177.395746 74.433939 
L 230.4 74.433939 
L 203.897873 28.530909 
z
" style="fill:#808000;stroke:#000000;stroke-linejoin:miter;"/>
   </g>
   <g id="patch_17">
    <path clip-path="url(#p7250ad1f4b)" d="M 230.4 74.433939 
L 256.902127 28.530909 
L 203.897873 28.530909 
z
" style="fill:#800080;stroke:#000000;stroke-linejoin:miter;"/>
   </g>
   <g id="patch_18">
    <path clip-path="url(#p7250ad1f4b)" d="M 150.893619 303.949091 
L 177.395746 258.046061 
L 124.391492 258.046061 
z
" style="fill:#0000ff;stroke:#000000;stroke-linejoin:miter;"/>
   </g>
   <g id="patch_19">
    <path clip-path="url(#p7250ad1f4b)" d="M 124.391492 258.046061 
L 177.395746 258.046061 
L 150.893619 212.14303 
z
" style="fill:#ffc0cb;stroke:#000000;stroke-linejoin:miter;"/>
   </g>
   <g id="patch_20">
    <path clip-path="url(#p7250ad1f4b)" d="M 177.395746 258.046061 
L 203.897873 212.14303 
L 150.893619 212.14303 
z
" style="fill:#ffa500;stroke:#000000;stroke-linejoin:miter;"/>
   </g>
   <g id="patch_21">
    <path clip-path="url(#p7250ad1f4b)" d="M 150.893619 212.14303 
L 203.897873 212.14303 
L 177.395746 166.24 
z
" style="fill:#0000ff;stroke:#000000;stroke-linejoin:miter;"/>
   </g>
   <g id="patch_22">
    <path clip-path="url(#p7250ad1f4b)" d="M 203.897873 212.14303 
L 230.4 166.24 
L 177.395746 166.24 
z
" style="fill:#ffa500;stroke:#000000;stroke-linejoin:miter;"/>
   </g>
   <g id="patch_23">
    <path clip-path="url(#p7250ad1f4b)" d="M 177.395746 166.24 
L 230.4 166.24 
L 203.897873 120.33697 
z
" style="fill:#ff0000;stroke:#000000;stroke-linejoin:miter;"/>
   </g>
   <g id="patch_24">
    <path clip-path="url(#p7250ad1f4b)" d="M 230.4 166.24 
L 256.902127 120.33697 
L 203.897873 120.33697 
z
" style="fill:#ff0000;stroke:#000000;stroke-linejoin:miter;"/>
   </g>
   <g id="patch_25">
    <path clip-path="url(#p7250ad1f4b)" d="M 203.897873 120.33697 
L 256.902127 120.33697 
L 230.4 74.433939 
z
" style="fill:#800080;stroke:#000000;stroke-linejoin:miter;"/>
   </g>
   <g id="patch_26">
    <path clip-path="url(#p7250ad1f4b)" d="M 256.902127 120.33697 
L 283.404254 74.433939 
L 230.4 74.433939 
z
" style="fill:#808000;stroke:#000000;stroke-linejoin:miter;"/>
   </g>
   <g id="patch_27">
    <path clip-path="url(#p7250ad1f4b)" d="M 230.4 74.433939 
L 283.404254 74.433939 
L 256.902127 28.530909 
z
" style="fill:#ff0000;stroke:#000000;stroke-linejoin:miter;"/>
   </g>
   <g id="patch_28">
    <path clip-path="url(#p7250ad1f4b)" d="M 283.404254 74.433939 
L 309.906381 28.530909 
L 256.902127 28.530909 
z
" style="fill:#808000;stroke:#000000;stroke-linejoin:miter;"/>
   </g>
   <g id="patch_29">
    <path clip-path="url(#p7250ad1f4b)" d="M 150.893619 303.949091 
L 203.897873 303.949091 
L 177.395746 258.046061 
z
" style="fill:#0000ff;stroke:#000000;stroke-linejoin:miter;"/>
   </g>
   <g id="patch_30">
    <path clip-path="url(#p7250ad1f4b)" d="M 203.897873 303.949091 
L 230.4 258.046061 
L 177.395746 258.046061 
z
" style="fill:#ffa500;stroke:#000000;stroke-linejoin:miter;"/>
   </g>
   <g id="patch_31">
    <path clip-path="url(#p7250ad1f4b)" d="M 177.395746 258.046061 
L 230.4 258.046061 
L 203.897873 212.14303 
z
" style="fill:#0000ff;stroke:#000000;stroke-linejoin:miter;"/>
   </g>
   <g id="patch_32">
    <path clip-path="url(#p7250ad1f4b)" d="M 230.4 258.046061 
L 256.902127 212.14303 
L 203.897873 212.14303 
z
" style="fill:#a52a2a;stroke:#000000;stroke-linejoin:miter;"/>
   </g>
   <g id="patch_33">
    <path clip-path="url(#p7250ad1f4b)" d="M 203.897873 212.14303 
L 256.902127 212.14303 
L 230.4 166.24 
z
" style="fill:#ffa500;stroke:#000000;stroke-linejoin:miter;"/>
   </g>
   <g id="patch_34">
    <path clip-path="url(#p7250ad1f4b)" d="M 256.902127 212.14303 
L 283.404254 166.24 
L 230.4 166.24 
z
" style="fill:#808080;stroke:#000000;stroke-linejoin:miter;"/>
   </g>
   <g id="patch_35">
    <path clip-path="url(#p7250ad1f4b)" d="M 230.4 166.24 
L 283.404254 166.24 
L 256.902127 120.33697 
z
" style="fill:#808080;stroke:#000000;stroke-linejoin:miter;"/>
   </g>
   <g id="patch_36">
    <path clip-path="url(#p7250ad1f4b)" d="M 283.404254 166.24 
L 309.906381 120.33697 
L 256.902127 120.33697 
z
" style="fill:#808000;stroke:#000000;stroke-linejoin:miter;"/>
   </g>
   <g id="patch_37">
    <path clip-path="url(#p7250ad1f4b)" d="M 256.902127 120.33697 
L 309.906381 120.33697 
L 283.404254 74.433939 
z
" style="fill:#808080;stroke:#000000;stroke-linejoin:miter;"/>
   </g>
   <g id="patch_38">
    <path clip-path="url(#p7250ad1f4b)" d="M 309.906381 120.33697 
L 336.408508 74.433939 
L 283.404254 74.433939 
z
" style="fill:#008000;stroke:#000000;stroke-linejoin:miter;"/>
   </g>
   <g id="patch_39">
    <path clip-path="url(#p7250ad1f4b)" d="M 283.404254 74.433939 
L 336.408508 74.433939 
L 309.906381 28.530909 
z
" style="fill:#808000;stroke:#000000;stroke-linejoin:miter;"/>
   </g>
   <g id="patch_40">
    <path clip-path="url(#p7250ad1f4b)" d="M 203.897873 303.949091 
L 256.902127 303.949091 
L 230.4 258.046061 
z
" style="fill:#a52a2a;stroke:#000000;stroke-linejoin:miter;"/>
   </g>
   <g id="patch_41">
    <path clip-path="url(#p7250ad1f4b)" d="M 256.902127 303.949091 
L 283.404254 258.046061 
L 230.4 258.046061 
z
" style="fill:#0000ff;stroke:#000000;stroke-linejoin:miter;"/>
   </g>
   <g id="patch_42">
    <path clip-path="url(#p7250ad1f4b)" d="M 230.4 258.046061 
L 283.404254 258.046061 
L 256.902127 212.14303 
z
" style="fill:#ffa500;stroke:#000000;stroke-linejoin:miter;"/>
   </g>
   <g id="patch_43">
    <path clip-path="url(#p7250ad1f4b)" d="M 283.404254 258.046061 
L 309.906381 212.14303 
L 256.902127 212.14303 
z
" style="fill:#a52a2a;stroke:#000000;stroke-linejoin:miter;"/>
   </g>
   <g id="patch_44">
    <path clip-path="url(#p7250ad1f4b)" d="M 256.902127 212.14303 
L 309.906381 212.14303 
L 283.404254 166.24 
z
" style="fill:#008000;stroke:#000000;stroke-linejoin:miter;"/>
   </g>
   <g id="patch_45">
    <path clip-path="url(#p7250ad1f4b)" d="M 309.906381 212.14303 
L 336.408508 166.24 
L 283.404254 166.24 
z
" style="fill:#808080;stroke:#000000;stroke-linejoin:miter;"/>
   </g>
   <g id="patch_46">
    <path clip-path="url(#p7250ad1f4b)" d="M 283.404254 166.24 
L 336.408508 166.24 
L 309.906381 120.33697 
z
" style="fill:#008000;stroke:#000000;stroke-linejoin:miter;"/>
   </g>
   <g id="patch_47">
    <path clip-path="url(#p7250ad1f4b)" d="M 336.408508 166.24 
L 362.910635 120.33697 
L 309.906381 120.33697 
z
" style="fill:#808080;stroke:#000000;stroke-linejoin:miter;"/>
   </g>
   <g id="patch_48">
    <path clip-path="url(#p7250ad1f4b)" d="M 309.906381 120.33697 
L 362.910635 120.33697 
L 336.408508 74.433939 
z
" style="fill:#808000;stroke:#000000;stroke-linejoin:miter;"/>
   </g>
   <g id="patch_49">
    <path clip-path="url(#p7250ad1f4b)" d="M 256.902127 303.949091 
L 309.906381 303.949091 
L 283.404254 258.046061 
z
" style="fill:#a52a2a;stroke:#000000;stroke-linejoin:miter;"/>
   </g>
   <g id="patch_50">
    <path clip-path="url(#p7250ad1f4b)" d="M 309.906381 303.949091 
L 336.408508 258.046061 
L 283.404254 258.046061 
z
" style="fill:#a52a2a;stroke:#000000;stroke-linejoin:miter;"/>
   </g>
   <g id="patch_51">
    <path clip-path="url(#p7250ad1f4b)" d="M 283.404254 258.046061 
L 336.408508 258.046061 
L 309.906381 212.14303 
z
" style="fill:#808080;stroke:#000000;stroke-linejoin:miter;"/>
   </g>
   <g id="patch_52">
    <path clip-path="url(#p7250ad1f4b)" d="M 336.408508 258.046061 
L 362.910635 212.14303 
L 309.906381 212.14303 
z
" style="fill:#008000;stroke:#000000;stroke-linejoin:miter;"/>
   </g>
   <g id="patch_53">
    <path clip-path="url(#p7250ad1f4b)" d="M 309.906381 212.14303 
L 362.910635 212.14303 
L 336.408508 166.24 
z
" style="fill:#a52a2a;stroke:#000000;stroke-linejoin:miter;"/>
   </g>
   <g id="patch_54">
    <path clip-path="url(#p7250ad1f4b)" d="M 362.910635 212.14303 
L 389.412762 166.24 
L 336.408508 166.24 
z
" style="fill:#008000;stroke:#000000;stroke-linejoin:miter;"/>
   </g>
   <g id="patch_55">
    <path clip-path="url(#p7250ad1f4b)" d="M 336.408508 166.24 
L 389.412762 166.24 
L 362.910635 120.33697 
z
" style="fill:#008000;stroke:#000000;stroke-linejoin:miter;"/>
   </g>
  </g>
 </g>
 <defs>
  <clipPath id="p7250ad1f4b">
   <rect height="302.96" width="349.828075" x="55.485962" y="14.76"/>
  </clipPath>
 </defs>
</svg>
