<?xml version="1.0" encoding="utf-8" standalone="no"?>
<!DOCTYPE svg PUBLIC "-//W3C//DTD SVG 1.1//EN"
  "http://www.w3.org/Graphics/SVG/1.1/DTD/svg11.dtd">
<!-- Created with matplotlib (http://matplotlib.org/) -->
<svg height="345pt" version="1.1" viewBox="0 0 460 345" width="460pt" xmlns="http://www.w3.org/2000/svg" xmlns:xlink="http://www.w3.org/1999/xlink">
 <defs>
  <style type="text/css">
*{stroke-linecap:butt;stroke-linejoin:round;}
  </style>
 </defs>
 <g id="figure_1">
  <g id="patch_1">
   <path d="M 0 345.6 
L 460.8 345.6 
L 460.8 0 
L 0 0 
z
" style="fill:#ffffff;"/>
  </g>
  <g id="axes_1">
   <g id="patch_2">
    <path clip-path="url(#pbdd1dc87c9)" d="M 111.140429 235.094545 
L 150.893619 166.24 
L 71.387238 166.24 
z
" style="fill:#ff0000;stroke:#000000;stroke-linejoin:miter;"/>
   </g>
   <g id="patch_3">
    <path clip-path="url(#pbdd1dc87c9)" d="M 71.387238 166.24 
L 150.893619 166.24 
L 111.140429 97.385455 
z
" style="fill:#008000;stroke:#000000;stroke-linejoin:miter;"/>
   </g>
   <g id="patch_4">
    <path clip-path="url(#pbdd1dc87c9)" d="M 150.893619 166.24 
L 190.64681 97.385455 
L 111.140429 97.385455 
z
" style="fill:#a52a2a;stroke:#000000;stroke-linejoin:miter;"/>
   </g>
   <g id="patch_5">
    <path clip-path="url(#pbdd1dc87c9)" d="M 111.140429 97.385454 
L 190.64681 97.385454 
L 150.893619 28.530909 
z
" style="fill:#ff0000;stroke:#000000;stroke-linejoin:miter;"/>
   </g>
   <g id="patch_6">
    <path clip-path="url(#pbdd1dc87c9)" d="M 190.64681 97.385454 
L 230.4 28.530909 
L 150.893619 28.530909 
z
" style="fill:#a52a2a;stroke:#000000;stroke-linejoin:miter;"/>
   </g>
   <g id="patch_7">
    <path clip-path="url(#pbdd1dc87c9)" d="M 150.893619 303.949091 
L 190.64681 235.094546 
L 111.140429 235.094546 
z
" style="fill:#ffc0cb;stroke:#000000;stroke-linejoin:miter;"/>
   </g>
   <g id="patch_8">
    <path clip-path="url(#pbdd1dc87c9)" d="M 111.140429 235.094545 
L 190.64681 235.094545 
L 150.893619 166.24 
z
" style="fill:#0000ff;stroke:#000000;stroke-linejoin:miter;"/>
   </g>
   <g id="patch_9">
    <path clip-path="url(#pbdd1dc87c9)" d="M 190.64681 235.094545 
L 230.4 166.24 
L 150.893619 166.24 
z
" style="fill:#ffc0cb;stroke:#000000;stroke-linejoin:miter;"/>
   </g>
   <g id="patch_10">
    <path clip-path="url(#pbdd1dc87c9)" d="M 150.893619 166.24 
L 230.4 166.24 
L 190.64681 97.385455 
z
" style="fill:#800080;stroke:#000000;stroke-linejoin:miter;"/>
   </g>
   <g id="patch_11">
    <path clip-path="url(#pbdd1dc87c9)" d="M 230.4 166.24 
L 270.15319 97.385455 
L 190.64681 97.385455 
z
" style="fill:#008000;stroke:#000000;stroke-linejoin:miter;"/>
   </g>
   <g id="patch_12">
    <path clip-path="url(#pbdd1dc87c9)" d="M 190.64681 97.385454 
L 270.15319 97.385454 
L 230.4 28.530909 
z
" style="fill:#ff0000;stroke:#000000;stroke-linejoin:miter;"/>
   </g>
   <g id="patch_13">
    <path clip-path="url(#pbdd1dc87c9)" d="M 270.15319 97.385454 
L 309.906381 28.530909 
L 230.4 28.530909 
z
" style="fill:#800080;stroke:#000000;stroke-linejoin:miter;"/>
   </g>
   <g id="patch_14">
    <path clip-path="url(#pbdd1dc87c9)" d="M 150.893619 303.949091 
L 230.4 303.949091 
L 190.64681 235.094546 
z
" style="fill:#0000ff;stroke:#000000;stroke-linejoin:miter;"/>
   </g>
   <g id="patch_15">
    <path clip-path="url(#pbdd1dc87c9)" d="M 230.4 303.949091 
L 270.15319 235.094546 
L 190.64681 235.094546 
z
" style="fill:#808080;stroke:#000000;stroke-linejoin:miter;"/>
   </g>
   <g id="patch_16">
    <path clip-path="url(#pbdd1dc87c9)" d="M 190.64681 235.094545 
L 270.15319 235.094545 
L 230.4 166.24 
z
" style="fill:#800080;stroke:#000000;stroke-linejoin:miter;"/>
   </g>
   <g id="patch_17">
    <path clip-path="url(#pbdd1dc87c9)" d="M 270.15319 235.094545 
L 309.906381 166.24 
L 230.4 166.24 
z
" style="fill:#008000;stroke:#000000;stroke-linejoin:miter;"/>
   </g>
   <g id="patch_18">
    <path clip-path="url(#pbdd1dc87c9)" d="M 230.4 166.24 
L 309.906381 166.24 
L 270.15319 97.385455 
z
" style="fill:#808080;stroke:#000000;stroke-linejoin:miter;"/>
   </g>
   <g id="patch_19">
    <path clip-path="url(#pbdd1dc87c9)" d="M 309.906381 166.24 
L 349.659571 97.385455 
L 270.15319 97.385455 
z
" style="fill:#ffa500;stroke:#000000;stroke-linejoin:miter;"/>
   </g>
   <g id="patch_20">
    <path clip-path="url(#pbdd1dc87c9)" d="M 270.15319 97.385454 
L 349.659571 97.385454 
L 309.906381 28.530909 
z
" style="fill:#a52a2a;stroke:#000000;stroke-linejoin:miter;"/>
   </g>
   <g id="patch_21">
    <path clip-path="url(#pbdd1dc87c9)" d="M 230.4 303.949091 
L 309.906381 303.949091 
L 270.15319 235.094546 
z
" style="fill:#ffa500;stroke:#000000;stroke-linejoin:miter;"/>
   </g>
   <g id="patch_22">
    <path clip-path="url(#pbdd1dc87c9)" d="M 309.906381 303.949091 
L 349.659571 235.094546 
L 270.15319 235.094546 
z
" style="fill:#0000ff;stroke:#000000;stroke-linejoin:miter;"/>
   </g>
   <g id="patch_23">
    <path clip-path="url(#pbdd1dc87c9)" d="M 270.15319 235.094545 
L 349.659571 235.094545 
L 309.906381 166.24 
z
" style="fill:#ffc0cb;stroke:#000000;stroke-linejoin:miter;"/>
   </g>
   <g id="patch_24">
    <path clip-path="url(#pbdd1dc87c9)" d="M 349.659571 235.094545 
L 389.412762 166.24 
L 309.906381 166.24 
z
" style="fill:#ffa500;stroke:#000000;stroke-linejoin:miter;"/>
   </g>
   <g id="patch_25">
    <path clip-path="url(#pbdd1dc87c9)" d="M 309.906381 166.24 
L 389.412762 166.24 
L 349.659571 97.385455 
z
" style="fill:#808080;stroke:#000000;stroke-linejoin:miter;"/>
   </g>
  </g>
 </g>
 <defs>
  <clipPath id="pbdd1dc87c9">
   <rect height="302.96" width="349.828075" x="55.485962" y="14.76"/>
  </clipPath>
 </defs>
</svg>
