<?xml version="1.0" encoding="utf-8" standalone="no"?>
<!DOCTYPE svg PUBLIC "-//W3C//DTD SVG 1.1//EN"
  "http://www.w3.org/Graphics/SVG/1.1/DTD/svg11.dtd">
<svg xmlns:xlink="http://www.w3.org/1999/xlink" width="460.8pt" height="345.6pt" viewBox="0 0 460.8 345.6" xmlns="http://www.w3.org/2000/svg" version="1.1">
 <metadata>
  <rdf:RDF xmlns:dc="http://purl.org/dc/elements/1.1/" xmlns:cc="http://creativecommons.org/ns#" xmlns:rdf="http://www.w3.org/1999/02/22-rdf-syntax-ns#">
   <cc:Work>
    <dc:type rdf:resource="http://purl.org/dc/dcmitype/StillImage"/>
    <dc:date>2024-03-15T20:24:20.590350</dc:date>
    <dc:format>image/svg+xml</dc:format>
    <dc:creator>
     <cc:Agent>
      <dc:title>Matplotlib v3.8.3, https://matplotlib.org/</dc:title>
     </cc:Agent>
    </dc:creator>
   </cc:Work>
  </rdf:RDF>
 </metadata>
 <defs>
  <style type="text/css">*{stroke-linejoin: round; stroke-linecap: butt}</style>
 </defs>
 <g id="figure_1">
  <g id="patch_1">
   <path d="M 0 345.6 
L 460.8 345.6 
L 460.8 0 
L 0 0 
z
" style="fill: #ffffff"/>
  </g>
  <g id="axes_1">
   <g id="patch_2">
    <path d="M 60.344102 320.072727 
L 88.686752 320.072727 
L 74.515427 295.527273 
z
" clip-path="url(#p8a49e7ebb0)" style="fill: #ffa500; stroke: #000000; stroke-linejoin: miter"/>
   </g>
   <g id="patch_3">
    <path d="M 88.686752 320.072727 
L 102.858077 295.527273 
L 74.515427 295.527273 
z
" clip-path="url(#p8a49e7ebb0)" style="fill: #ffa500; stroke: #000000; stroke-linejoin: miter"/>
   </g>
   <g id="patch_4">
    <path d="M 74.515427 295.527273 
L 102.858077 295.527273 
L 88.686752 270.981818 
z
" clip-path="url(#p8a49e7ebb0)" style="fill: #a52a2a; stroke: #000000; stroke-linejoin: miter"/>
   </g>
   <g id="patch_5">
    <path d="M 102.858077 295.527273 
L 117.029402 270.981818 
L 88.686752 270.981818 
z
" clip-path="url(#p8a49e7ebb0)" style="fill: #a52a2a; stroke: #000000; stroke-linejoin: miter"/>
   </g>
   <g id="patch_6">
    <path d="M 88.686752 270.981818 
L 117.029402 270.981818 
L 102.858077 246.436364 
z
" clip-path="url(#p8a49e7ebb0)" style="fill: #ffa500; stroke: #000000; stroke-linejoin: miter"/>
   </g>
   <g id="patch_7">
    <path d="M 117.029402 270.981818 
L 131.200726 246.436364 
L 102.858077 246.436364 
z
" clip-path="url(#p8a49e7ebb0)" style="fill: #800080; stroke: #000000; stroke-linejoin: miter"/>
   </g>
   <g id="patch_8">
    <path d="M 102.858077 246.436364 
L 131.200726 246.436364 
L 117.029402 221.890909 
z
" clip-path="url(#p8a49e7ebb0)" style="fill: #a52a2a; stroke: #000000; stroke-linejoin: miter"/>
   </g>
   <g id="patch_9">
    <path d="M 131.200726 246.436364 
L 145.372051 221.890909 
L 117.029402 221.890909 
z
" clip-path="url(#p8a49e7ebb0)" style="fill: #800080; stroke: #000000; stroke-linejoin: miter"/>
   </g>
   <g id="patch_10">
    <path d="M 117.029402 221.890909 
L 145.372051 221.890909 
L 131.200726 197.345455 
z
" clip-path="url(#p8a49e7ebb0)" style="fill: #ffa500; stroke: #000000; stroke-linejoin: miter"/>
   </g>
   <g id="patch_11">
    <path d="M 145.372051 221.890909 
L 159.543376 197.345455 
L 131.200726 197.345455 
z
" clip-path="url(#p8a49e7ebb0)" style="fill: #ffa500; stroke: #000000; stroke-linejoin: miter"/>
   </g>
   <g id="patch_12">
    <path d="M 131.200726 197.345455 
L 159.543376 197.345455 
L 145.372051 172.8 
z
" clip-path="url(#p8a49e7ebb0)" style="fill: #a52a2a; stroke: #000000; stroke-linejoin: miter"/>
   </g>
   <g id="patch_13">
    <path d="M 159.543376 197.345455 
L 173.714701 172.8 
L 145.372051 172.8 
z
" clip-path="url(#p8a49e7ebb0)" style="fill: #a52a2a; stroke: #000000; stroke-linejoin: miter"/>
   </g>
   <g id="patch_14">
    <path d="M 145.372051 172.8 
L 173.714701 172.8 
L 159.543376 148.254545 
z
" clip-path="url(#p8a49e7ebb0)" style="fill: #800080; stroke: #000000; stroke-linejoin: miter"/>
   </g>
   <g id="patch_15">
    <path d="M 173.714701 172.8 
L 187.886026 148.254545 
L 159.543376 148.254545 
z
" clip-path="url(#p8a49e7ebb0)" style="fill: #ffa500; stroke: #000000; stroke-linejoin: miter"/>
   </g>
   <g id="patch_16">
    <path d="M 159.543376 148.254545 
L 187.886026 148.254545 
L 173.714701 123.709091 
z
" clip-path="url(#p8a49e7ebb0)" style="fill: #800080; stroke: #000000; stroke-linejoin: miter"/>
   </g>
   <g id="patch_17">
    <path d="M 187.886026 148.254545 
L 202.05735 123.709091 
L 173.714701 123.709091 
z
" clip-path="url(#p8a49e7ebb0)" style="fill: #a52a2a; stroke: #000000; stroke-linejoin: miter"/>
   </g>
   <g id="patch_18">
    <path d="M 173.714701 123.709091 
L 202.05735 123.709091 
L 187.886026 99.163636 
z
" clip-path="url(#p8a49e7ebb0)" style="fill: #800080; stroke: #000000; stroke-linejoin: miter"/>
   </g>
   <g id="patch_19">
    <path d="M 202.05735 123.709091 
L 216.228675 99.163636 
L 187.886026 99.163636 
z
" clip-path="url(#p8a49e7ebb0)" style="fill: #ffa500; stroke: #000000; stroke-linejoin: miter"/>
   </g>
   <g id="patch_20">
    <path d="M 187.886026 99.163636 
L 216.228675 99.163636 
L 202.05735 74.618182 
z
" clip-path="url(#p8a49e7ebb0)" style="fill: #ffa500; stroke: #000000; stroke-linejoin: miter"/>
   </g>
   <g id="patch_21">
    <path d="M 216.228675 99.163636 
L 230.4 74.618182 
L 202.05735 74.618182 
z
" clip-path="url(#p8a49e7ebb0)" style="fill: #a52a2a; stroke: #000000; stroke-linejoin: miter"/>
   </g>
   <g id="patch_22">
    <path d="M 202.05735 74.618182 
L 230.4 74.618182 
L 216.228675 50.072727 
z
" clip-path="url(#p8a49e7ebb0)" style="fill: #a52a2a; stroke: #000000; stroke-linejoin: miter"/>
   </g>
   <g id="patch_23">
    <path d="M 230.4 74.618182 
L 244.571325 50.072727 
L 216.228675 50.072727 
z
" clip-path="url(#p8a49e7ebb0)" style="fill: #800080; stroke: #000000; stroke-linejoin: miter"/>
   </g>
   <g id="patch_24">
    <path d="M 216.228675 50.072727 
L 244.571325 50.072727 
L 230.4 25.527273 
z
" clip-path="url(#p8a49e7ebb0)" style="fill: #800080; stroke: #000000; stroke-linejoin: miter"/>
   </g>
   <g id="patch_25">
    <path d="M 88.686752 320.072727 
L 117.029402 320.072727 
L 102.858077 295.527273 
z
" clip-path="url(#p8a49e7ebb0)" style="fill: #008000; stroke: #000000; stroke-linejoin: miter"/>
   </g>
   <g id="patch_26">
    <path d="M 117.029402 320.072727 
L 131.200726 295.527273 
L 102.858077 295.527273 
z
" clip-path="url(#p8a49e7ebb0)" style="fill: #008000; stroke: #000000; stroke-linejoin: miter"/>
   </g>
   <g id="patch_27">
    <path d="M 102.858077 295.527273 
L 131.200726 295.527273 
L 117.029402 270.981818 
z
" clip-path="url(#p8a49e7ebb0)" style="fill: #008000; stroke: #000000; stroke-linejoin: miter"/>
   </g>
   <g id="patch_28">
    <path d="M 131.200726 295.527273 
L 145.372051 270.981818 
L 117.029402 270.981818 
z
" clip-path="url(#p8a49e7ebb0)" style="fill: #ff0000; stroke: #000000; stroke-linejoin: miter"/>
   </g>
   <g id="patch_29">
    <path d="M 117.029402 270.981818 
L 145.372051 270.981818 
L 131.200726 246.436364 
z
" clip-path="url(#p8a49e7ebb0)" style="fill: #ffa500; stroke: #000000; stroke-linejoin: miter"/>
   </g>
   <g id="patch_30">
    <path d="M 145.372051 270.981818 
L 159.543376 246.436364 
L 131.200726 246.436364 
z
" clip-path="url(#p8a49e7ebb0)" style="fill: #ff0000; stroke: #000000; stroke-linejoin: miter"/>
   </g>
   <g id="patch_31">
    <path d="M 131.200726 246.436364 
L 159.543376 246.436364 
L 145.372051 221.890909 
z
" clip-path="url(#p8a49e7ebb0)" style="fill: #a52a2a; stroke: #000000; stroke-linejoin: miter"/>
   </g>
   <g id="patch_32">
    <path d="M 159.543376 246.436364 
L 173.714701 221.890909 
L 145.372051 221.890909 
z
" clip-path="url(#p8a49e7ebb0)" style="fill: #008000; stroke: #000000; stroke-linejoin: miter"/>
   </g>
   <g id="patch_33">
    <path d="M 145.372051 221.890909 
L 173.714701 221.890909 
L 159.543376 197.345455 
z
" clip-path="url(#p8a49e7ebb0)" style="fill: #800080; stroke: #000000; stroke-linejoin: miter"/>
   </g>
   <g id="patch_34">
    <path d="M 173.714701 221.890909 
L 187.886026 197.345455 
L 159.543376 197.345455 
z
" clip-path="url(#p8a49e7ebb0)" style="fill: #008000; stroke: #000000; stroke-linejoin: miter"/>
   </g>
   <g id="patch_35">
    <path d="M 159.543376 197.345455 
L 187.886026 197.345455 
L 173.714701 172.8 
z
" clip-path="url(#p8a49e7ebb0)" style="fill: #ff0000; stroke: #000000; stroke-linejoin: miter"/>
   </g>
   <g id="patch_36">
    <path d="M 187.886026 197.345455 
L 202.05735 172.8 
L 173.714701 172.8 
z
" clip-path="url(#p8a49e7ebb0)" style="fill: #ffa500; stroke: #000000; stroke-linejoin: miter"/>
   </g>
   <g id="patch_37">
    <path d="M 173.714701 172.8 
L 202.05735 172.8 
L 187.886026 148.254545 
z
" clip-path="url(#p8a49e7ebb0)" style="fill: #ff0000; stroke: #000000; stroke-linejoin: miter"/>
   </g>
   <g id="patch_38">
    <path d="M 202.05735 172.8 
L 216.228675 148.254545 
L 187.886026 148.254545 
z
" clip-path="url(#p8a49e7ebb0)" style="fill: #a52a2a; stroke: #000000; stroke-linejoin: miter"/>
   </g>
   <g id="patch_39">
    <path d="M 187.886026 148.254545 
L 216.228675 148.254545 
L 202.05735 123.709091 
z
" clip-path="url(#p8a49e7ebb0)" style="fill: #ff0000; stroke: #000000; stroke-linejoin: miter"/>
   </g>
   <g id="patch_40">
    <path d="M 216.228675 148.254545 
L 230.4 123.709091 
L 202.05735 123.709091 
z
" clip-path="url(#p8a49e7ebb0)" style="fill: #800080; stroke: #000000; stroke-linejoin: miter"/>
   </g>
   <g id="patch_41">
    <path d="M 202.05735 123.709091 
L 230.4 123.709091 
L 216.228675 99.163636 
z
" clip-path="url(#p8a49e7ebb0)" style="fill: #ffa500; stroke: #000000; stroke-linejoin: miter"/>
   </g>
   <g id="patch_42">
    <path d="M 230.4 123.709091 
L 244.571325 99.163636 
L 216.228675 99.163636 
z
" clip-path="url(#p8a49e7ebb0)" style="fill: #008000; stroke: #000000; stroke-linejoin: miter"/>
   </g>
   <g id="patch_43">
    <path d="M 216.228675 99.163636 
L 244.571325 99.163636 
L 230.4 74.618182 
z
" clip-path="url(#p8a49e7ebb0)" style="fill: #a52a2a; stroke: #000000; stroke-linejoin: miter"/>
   </g>
   <g id="patch_44">
    <path d="M 244.571325 99.163636 
L 258.74265 74.618182 
L 230.4 74.618182 
z
" clip-path="url(#p8a49e7ebb0)" style="fill: #ff0000; stroke: #000000; stroke-linejoin: miter"/>
   </g>
   <g id="patch_45">
    <path d="M 230.4 74.618182 
L 258.74265 74.618182 
L 244.571325 50.072727 
z
" clip-path="url(#p8a49e7ebb0)" style="fill: #ff0000; stroke: #000000; stroke-linejoin: miter"/>
   </g>
   <g id="patch_46">
    <path d="M 117.029402 320.072727 
L 145.372051 320.072727 
L 131.200726 295.527273 
z
" clip-path="url(#p8a49e7ebb0)" style="fill: #0000ff; stroke: #000000; stroke-linejoin: miter"/>
   </g>
   <g id="patch_47">
    <path d="M 145.372051 320.072727 
L 159.543376 295.527273 
L 131.200726 295.527273 
z
" clip-path="url(#p8a49e7ebb0)" style="fill: #0000ff; stroke: #000000; stroke-linejoin: miter"/>
   </g>
   <g id="patch_48">
    <path d="M 131.200726 295.527273 
L 159.543376 295.527273 
L 145.372051 270.981818 
z
" clip-path="url(#p8a49e7ebb0)" style="fill: #0000ff; stroke: #000000; stroke-linejoin: miter"/>
   </g>
   <g id="patch_49">
    <path d="M 159.543376 295.527273 
L 173.714701 270.981818 
L 145.372051 270.981818 
z
" clip-path="url(#p8a49e7ebb0)" style="fill: #ffa500; stroke: #000000; stroke-linejoin: miter"/>
   </g>
   <g id="patch_50">
    <path d="M 145.372051 270.981818 
L 173.714701 270.981818 
L 159.543376 246.436364 
z
" clip-path="url(#p8a49e7ebb0)" style="fill: #008000; stroke: #000000; stroke-linejoin: miter"/>
   </g>
   <g id="patch_51">
    <path d="M 173.714701 270.981818 
L 187.886026 246.436364 
L 159.543376 246.436364 
z
" clip-path="url(#p8a49e7ebb0)" style="fill: #a52a2a; stroke: #000000; stroke-linejoin: miter"/>
   </g>
   <g id="patch_52">
    <path d="M 159.543376 246.436364 
L 187.886026 246.436364 
L 173.714701 221.890909 
z
" clip-path="url(#p8a49e7ebb0)" style="fill: #ff0000; stroke: #000000; stroke-linejoin: miter"/>
   </g>
   <g id="patch_53">
    <path d="M 187.886026 246.436364 
L 202.05735 221.890909 
L 173.714701 221.890909 
z
" clip-path="url(#p8a49e7ebb0)" style="fill: #0000ff; stroke: #000000; stroke-linejoin: miter"/>
   </g>
   <g id="patch_54">
    <path d="M 173.714701 221.890909 
L 202.05735 221.890909 
L 187.886026 197.345455 
z
" clip-path="url(#p8a49e7ebb0)" style="fill: #800080; stroke: #000000; stroke-linejoin: miter"/>
   </g>
   <g id="patch_55">
    <path d="M 202.05735 221.890909 
L 216.228675 197.345455 
L 187.886026 197.345455 
z
" clip-path="url(#p8a49e7ebb0)" style="fill: #0000ff; stroke: #000000; stroke-linejoin: miter"/>
   </g>
   <g id="patch_56">
    <path d="M 187.886026 197.345455 
L 216.228675 197.345455 
L 202.05735 172.8 
z
" clip-path="url(#p8a49e7ebb0)" style="fill: #800080; stroke: #000000; stroke-linejoin: miter"/>
   </g>
   <g id="patch_57">
    <path d="M 216.228675 197.345455 
L 230.4 172.8 
L 202.05735 172.8 
z
" clip-path="url(#p8a49e7ebb0)" style="fill: #800080; stroke: #000000; stroke-linejoin: miter"/>
   </g>
   <g id="patch_58">
    <path d="M 202.05735 172.8 
L 230.4 172.8 
L 216.228675 148.254545 
z
" clip-path="url(#p8a49e7ebb0)" style="fill: #ffa500; stroke: #000000; stroke-linejoin: miter"/>
   </g>
   <g id="patch_59">
    <path d="M 230.4 172.8 
L 244.571325 148.254545 
L 216.228675 148.254545 
z
" clip-path="url(#p8a49e7ebb0)" style="fill: #ff0000; stroke: #000000; stroke-linejoin: miter"/>
   </g>
   <g id="patch_60">
    <path d="M 216.228675 148.254545 
L 244.571325 148.254545 
L 230.4 123.709091 
z
" clip-path="url(#p8a49e7ebb0)" style="fill: #a52a2a; stroke: #000000; stroke-linejoin: miter"/>
   </g>
   <g id="patch_61">
    <path d="M 244.571325 148.254545 
L 258.74265 123.709091 
L 230.4 123.709091 
z
" clip-path="url(#p8a49e7ebb0)" style="fill: #008000; stroke: #000000; stroke-linejoin: miter"/>
   </g>
   <g id="patch_62">
    <path d="M 230.4 123.709091 
L 258.74265 123.709091 
L 244.571325 99.163636 
z
" clip-path="url(#p8a49e7ebb0)" style="fill: #800080; stroke: #000000; stroke-linejoin: miter"/>
   </g>
   <g id="patch_63">
    <path d="M 258.74265 123.709091 
L 272.913974 99.163636 
L 244.571325 99.163636 
z
" clip-path="url(#p8a49e7ebb0)" style="fill: #0000ff; stroke: #000000; stroke-linejoin: miter"/>
   </g>
   <g id="patch_64">
    <path d="M 244.571325 99.163636 
L 272.913974 99.163636 
L 258.74265 74.618182 
z
" clip-path="url(#p8a49e7ebb0)" style="fill: #800080; stroke: #000000; stroke-linejoin: miter"/>
   </g>
   <g id="patch_65">
    <path d="M 145.372051 320.072727 
L 173.714701 320.072727 
L 159.543376 295.527273 
z
" clip-path="url(#p8a49e7ebb0)" style="fill: #ffa500; stroke: #000000; stroke-linejoin: miter"/>
   </g>
   <g id="patch_66">
    <path d="M 173.714701 320.072727 
L 187.886026 295.527273 
L 159.543376 295.527273 
z
" clip-path="url(#p8a49e7ebb0)" style="fill: #008000; stroke: #000000; stroke-linejoin: miter"/>
   </g>
   <g id="patch_67">
    <path d="M 159.543376 295.527273 
L 187.886026 295.527273 
L 173.714701 270.981818 
z
" clip-path="url(#p8a49e7ebb0)" style="fill: #a52a2a; stroke: #000000; stroke-linejoin: miter"/>
   </g>
   <g id="patch_68">
    <path d="M 187.886026 295.527273 
L 202.05735 270.981818 
L 173.714701 270.981818 
z
" clip-path="url(#p8a49e7ebb0)" style="fill: #008000; stroke: #000000; stroke-linejoin: miter"/>
   </g>
   <g id="patch_69">
    <path d="M 173.714701 270.981818 
L 202.05735 270.981818 
L 187.886026 246.436364 
z
" clip-path="url(#p8a49e7ebb0)" style="fill: #0000ff; stroke: #000000; stroke-linejoin: miter"/>
   </g>
   <g id="patch_70">
    <path d="M 202.05735 270.981818 
L 216.228675 246.436364 
L 187.886026 246.436364 
z
" clip-path="url(#p8a49e7ebb0)" style="fill: #ffa500; stroke: #000000; stroke-linejoin: miter"/>
   </g>
   <g id="patch_71">
    <path d="M 187.886026 246.436364 
L 216.228675 246.436364 
L 202.05735 221.890909 
z
" clip-path="url(#p8a49e7ebb0)" style="fill: #ff0000; stroke: #000000; stroke-linejoin: miter"/>
   </g>
   <g id="patch_72">
    <path d="M 216.228675 246.436364 
L 230.4 221.890909 
L 202.05735 221.890909 
z
" clip-path="url(#p8a49e7ebb0)" style="fill: #a52a2a; stroke: #000000; stroke-linejoin: miter"/>
   </g>
   <g id="patch_73">
    <path d="M 202.05735 221.890909 
L 230.4 221.890909 
L 216.228675 197.345455 
z
" clip-path="url(#p8a49e7ebb0)" style="fill: #ff0000; stroke: #000000; stroke-linejoin: miter"/>
   </g>
   <g id="patch_74">
    <path d="M 230.4 221.890909 
L 244.571325 197.345455 
L 216.228675 197.345455 
z
" clip-path="url(#p8a49e7ebb0)" style="fill: #ff0000; stroke: #000000; stroke-linejoin: miter"/>
   </g>
   <g id="patch_75">
    <path d="M 216.228675 197.345455 
L 244.571325 197.345455 
L 230.4 172.8 
z
" clip-path="url(#p8a49e7ebb0)" style="fill: #008000; stroke: #000000; stroke-linejoin: miter"/>
   </g>
   <g id="patch_76">
    <path d="M 244.571325 197.345455 
L 258.74265 172.8 
L 230.4 172.8 
z
" clip-path="url(#p8a49e7ebb0)" style="fill: #ffa500; stroke: #000000; stroke-linejoin: miter"/>
   </g>
   <g id="patch_77">
    <path d="M 230.4 172.8 
L 258.74265 172.8 
L 244.571325 148.254545 
z
" clip-path="url(#p8a49e7ebb0)" style="fill: #008000; stroke: #000000; stroke-linejoin: miter"/>
   </g>
   <g id="patch_78">
    <path d="M 258.74265 172.8 
L 272.913974 148.254545 
L 244.571325 148.254545 
z
" clip-path="url(#p8a49e7ebb0)" style="fill: #a52a2a; stroke: #000000; stroke-linejoin: miter"/>
   </g>
   <g id="patch_79">
    <path d="M 244.571325 148.254545 
L 272.913974 148.254545 
L 258.74265 123.709091 
z
" clip-path="url(#p8a49e7ebb0)" style="fill: #ff0000; stroke: #000000; stroke-linejoin: miter"/>
   </g>
   <g id="patch_80">
    <path d="M 272.913974 148.254545 
L 287.085299 123.709091 
L 258.74265 123.709091 
z
" clip-path="url(#p8a49e7ebb0)" style="fill: #0000ff; stroke: #000000; stroke-linejoin: miter"/>
   </g>
   <g id="patch_81">
    <path d="M 258.74265 123.709091 
L 287.085299 123.709091 
L 272.913974 99.163636 
z
" clip-path="url(#p8a49e7ebb0)" style="fill: #ff0000; stroke: #000000; stroke-linejoin: miter"/>
   </g>
   <g id="patch_82">
    <path d="M 173.714701 320.072727 
L 202.05735 320.072727 
L 187.886026 295.527273 
z
" clip-path="url(#p8a49e7ebb0)" style="fill: #ffa500; stroke: #000000; stroke-linejoin: miter"/>
   </g>
   <g id="patch_83">
    <path d="M 202.05735 320.072727 
L 216.228675 295.527273 
L 187.886026 295.527273 
z
" clip-path="url(#p8a49e7ebb0)" style="fill: #0000ff; stroke: #000000; stroke-linejoin: miter"/>
   </g>
   <g id="patch_84">
    <path d="M 187.886026 295.527273 
L 216.228675 295.527273 
L 202.05735 270.981818 
z
" clip-path="url(#p8a49e7ebb0)" style="fill: #a52a2a; stroke: #000000; stroke-linejoin: miter"/>
   </g>
   <g id="patch_85">
    <path d="M 216.228675 295.527273 
L 230.4 270.981818 
L 202.05735 270.981818 
z
" clip-path="url(#p8a49e7ebb0)" style="fill: #0000ff; stroke: #000000; stroke-linejoin: miter"/>
   </g>
   <g id="patch_86">
    <path d="M 202.05735 270.981818 
L 230.4 270.981818 
L 216.228675 246.436364 
z
" clip-path="url(#p8a49e7ebb0)" style="fill: #ffa500; stroke: #000000; stroke-linejoin: miter"/>
   </g>
   <g id="patch_87">
    <path d="M 230.4 270.981818 
L 244.571325 246.436364 
L 216.228675 246.436364 
z
" clip-path="url(#p8a49e7ebb0)" style="fill: #800080; stroke: #000000; stroke-linejoin: miter"/>
   </g>
   <g id="patch_88">
    <path d="M 216.228675 246.436364 
L 244.571325 246.436364 
L 230.4 221.890909 
z
" clip-path="url(#p8a49e7ebb0)" style="fill: #a52a2a; stroke: #000000; stroke-linejoin: miter"/>
   </g>
   <g id="patch_89">
    <path d="M 244.571325 246.436364 
L 258.74265 221.890909 
L 230.4 221.890909 
z
" clip-path="url(#p8a49e7ebb0)" style="fill: #008000; stroke: #000000; stroke-linejoin: miter"/>
   </g>
   <g id="patch_90">
    <path d="M 230.4 221.890909 
L 258.74265 221.890909 
L 244.571325 197.345455 
z
" clip-path="url(#p8a49e7ebb0)" style="fill: #008000; stroke: #000000; stroke-linejoin: miter"/>
   </g>
   <g id="patch_91">
    <path d="M 258.74265 221.890909 
L 272.913974 197.345455 
L 244.571325 197.345455 
z
" clip-path="url(#p8a49e7ebb0)" style="fill: #ffa500; stroke: #000000; stroke-linejoin: miter"/>
   </g>
   <g id="patch_92">
    <path d="M 244.571325 197.345455 
L 272.913974 197.345455 
L 258.74265 172.8 
z
" clip-path="url(#p8a49e7ebb0)" style="fill: #0000ff; stroke: #000000; stroke-linejoin: miter"/>
   </g>
   <g id="patch_93">
    <path d="M 272.913974 197.345455 
L 287.085299 172.8 
L 258.74265 172.8 
z
" clip-path="url(#p8a49e7ebb0)" style="fill: #a52a2a; stroke: #000000; stroke-linejoin: miter"/>
   </g>
   <g id="patch_94">
    <path d="M 258.74265 172.8 
L 287.085299 172.8 
L 272.913974 148.254545 
z
" clip-path="url(#p8a49e7ebb0)" style="fill: #0000ff; stroke: #000000; stroke-linejoin: miter"/>
   </g>
   <g id="patch_95">
    <path d="M 287.085299 172.8 
L 301.256624 148.254545 
L 272.913974 148.254545 
z
" clip-path="url(#p8a49e7ebb0)" style="fill: #800080; stroke: #000000; stroke-linejoin: miter"/>
   </g>
   <g id="patch_96">
    <path d="M 272.913974 148.254545 
L 301.256624 148.254545 
L 287.085299 123.709091 
z
" clip-path="url(#p8a49e7ebb0)" style="fill: #800080; stroke: #000000; stroke-linejoin: miter"/>
   </g>
   <g id="patch_97">
    <path d="M 202.05735 320.072727 
L 230.4 320.072727 
L 216.228675 295.527273 
z
" clip-path="url(#p8a49e7ebb0)" style="fill: #ffa500; stroke: #000000; stroke-linejoin: miter"/>
   </g>
   <g id="patch_98">
    <path d="M 230.4 320.072727 
L 244.571325 295.527273 
L 216.228675 295.527273 
z
" clip-path="url(#p8a49e7ebb0)" style="fill: #008000; stroke: #000000; stroke-linejoin: miter"/>
   </g>
   <g id="patch_99">
    <path d="M 216.228675 295.527273 
L 244.571325 295.527273 
L 230.4 270.981818 
z
" clip-path="url(#p8a49e7ebb0)" style="fill: #a52a2a; stroke: #000000; stroke-linejoin: miter"/>
   </g>
   <g id="patch_100">
    <path d="M 244.571325 295.527273 
L 258.74265 270.981818 
L 230.4 270.981818 
z
" clip-path="url(#p8a49e7ebb0)" style="fill: #ff0000; stroke: #000000; stroke-linejoin: miter"/>
   </g>
   <g id="patch_101">
    <path d="M 230.4 270.981818 
L 258.74265 270.981818 
L 244.571325 246.436364 
z
" clip-path="url(#p8a49e7ebb0)" style="fill: #ffa500; stroke: #000000; stroke-linejoin: miter"/>
   </g>
   <g id="patch_102">
    <path d="M 258.74265 270.981818 
L 272.913974 246.436364 
L 244.571325 246.436364 
z
" clip-path="url(#p8a49e7ebb0)" style="fill: #800080; stroke: #000000; stroke-linejoin: miter"/>
   </g>
   <g id="patch_103">
    <path d="M 244.571325 246.436364 
L 272.913974 246.436364 
L 258.74265 221.890909 
z
" clip-path="url(#p8a49e7ebb0)" style="fill: #a52a2a; stroke: #000000; stroke-linejoin: miter"/>
   </g>
   <g id="patch_104">
    <path d="M 272.913974 246.436364 
L 287.085299 221.890909 
L 258.74265 221.890909 
z
" clip-path="url(#p8a49e7ebb0)" style="fill: #0000ff; stroke: #000000; stroke-linejoin: miter"/>
   </g>
   <g id="patch_105">
    <path d="M 258.74265 221.890909 
L 287.085299 221.890909 
L 272.913974 197.345455 
z
" clip-path="url(#p8a49e7ebb0)" style="fill: #0000ff; stroke: #000000; stroke-linejoin: miter"/>
   </g>
   <g id="patch_106">
    <path d="M 287.085299 221.890909 
L 301.256624 197.345455 
L 272.913974 197.345455 
z
" clip-path="url(#p8a49e7ebb0)" style="fill: #800080; stroke: #000000; stroke-linejoin: miter"/>
   </g>
   <g id="patch_107">
    <path d="M 272.913974 197.345455 
L 301.256624 197.345455 
L 287.085299 172.8 
z
" clip-path="url(#p8a49e7ebb0)" style="fill: #008000; stroke: #000000; stroke-linejoin: miter"/>
   </g>
   <g id="patch_108">
    <path d="M 301.256624 197.345455 
L 315.427949 172.8 
L 287.085299 172.8 
z
" clip-path="url(#p8a49e7ebb0)" style="fill: #ff0000; stroke: #000000; stroke-linejoin: miter"/>
   </g>
   <g id="patch_109">
    <path d="M 287.085299 172.8 
L 315.427949 172.8 
L 301.256624 148.254545 
z
" clip-path="url(#p8a49e7ebb0)" style="fill: #ff0000; stroke: #000000; stroke-linejoin: miter"/>
   </g>
   <g id="patch_110">
    <path d="M 230.4 320.072727 
L 258.74265 320.072727 
L 244.571325 295.527273 
z
" clip-path="url(#p8a49e7ebb0)" style="fill: #008000; stroke: #000000; stroke-linejoin: miter"/>
   </g>
   <g id="patch_111">
    <path d="M 258.74265 320.072727 
L 272.913974 295.527273 
L 244.571325 295.527273 
z
" clip-path="url(#p8a49e7ebb0)" style="fill: #0000ff; stroke: #000000; stroke-linejoin: miter"/>
   </g>
   <g id="patch_112">
    <path d="M 244.571325 295.527273 
L 272.913974 295.527273 
L 258.74265 270.981818 
z
" clip-path="url(#p8a49e7ebb0)" style="fill: #ffa500; stroke: #000000; stroke-linejoin: miter"/>
   </g>
   <g id="patch_113">
    <path d="M 272.913974 295.527273 
L 287.085299 270.981818 
L 258.74265 270.981818 
z
" clip-path="url(#p8a49e7ebb0)" style="fill: #ff0000; stroke: #000000; stroke-linejoin: miter"/>
   </g>
   <g id="patch_114">
    <path d="M 258.74265 270.981818 
L 287.085299 270.981818 
L 272.913974 246.436364 
z
" clip-path="url(#p8a49e7ebb0)" style="fill: #a52a2a; stroke: #000000; stroke-linejoin: miter"/>
   </g>
   <g id="patch_115">
    <path d="M 287.085299 270.981818 
L 301.256624 246.436364 
L 272.913974 246.436364 
z
" clip-path="url(#p8a49e7ebb0)" style="fill: #008000; stroke: #000000; stroke-linejoin: miter"/>
   </g>
   <g id="patch_116">
    <path d="M 272.913974 246.436364 
L 301.256624 246.436364 
L 287.085299 221.890909 
z
" clip-path="url(#p8a49e7ebb0)" style="fill: #800080; stroke: #000000; stroke-linejoin: miter"/>
   </g>
   <g id="patch_117">
    <path d="M 301.256624 246.436364 
L 315.427949 221.890909 
L 287.085299 221.890909 
z
" clip-path="url(#p8a49e7ebb0)" style="fill: #ff0000; stroke: #000000; stroke-linejoin: miter"/>
   </g>
   <g id="patch_118">
    <path d="M 287.085299 221.890909 
L 315.427949 221.890909 
L 301.256624 197.345455 
z
" clip-path="url(#p8a49e7ebb0)" style="fill: #008000; stroke: #000000; stroke-linejoin: miter"/>
   </g>
   <g id="patch_119">
    <path d="M 315.427949 221.890909 
L 329.599274 197.345455 
L 301.256624 197.345455 
z
" clip-path="url(#p8a49e7ebb0)" style="fill: #800080; stroke: #000000; stroke-linejoin: miter"/>
   </g>
   <g id="patch_120">
    <path d="M 301.256624 197.345455 
L 329.599274 197.345455 
L 315.427949 172.8 
z
" clip-path="url(#p8a49e7ebb0)" style="fill: #0000ff; stroke: #000000; stroke-linejoin: miter"/>
   </g>
   <g id="patch_121">
    <path d="M 258.74265 320.072727 
L 287.085299 320.072727 
L 272.913974 295.527273 
z
" clip-path="url(#p8a49e7ebb0)" style="fill: #0000ff; stroke: #000000; stroke-linejoin: miter"/>
   </g>
   <g id="patch_122">
    <path d="M 287.085299 320.072727 
L 301.256624 295.527273 
L 272.913974 295.527273 
z
" clip-path="url(#p8a49e7ebb0)" style="fill: #ffa500; stroke: #000000; stroke-linejoin: miter"/>
   </g>
   <g id="patch_123">
    <path d="M 272.913974 295.527273 
L 301.256624 295.527273 
L 287.085299 270.981818 
z
" clip-path="url(#p8a49e7ebb0)" style="fill: #008000; stroke: #000000; stroke-linejoin: miter"/>
   </g>
   <g id="patch_124">
    <path d="M 301.256624 295.527273 
L 315.427949 270.981818 
L 287.085299 270.981818 
z
" clip-path="url(#p8a49e7ebb0)" style="fill: #a52a2a; stroke: #000000; stroke-linejoin: miter"/>
   </g>
   <g id="patch_125">
    <path d="M 287.085299 270.981818 
L 315.427949 270.981818 
L 301.256624 246.436364 
z
" clip-path="url(#p8a49e7ebb0)" style="fill: #ff0000; stroke: #000000; stroke-linejoin: miter"/>
   </g>
   <g id="patch_126">
    <path d="M 315.427949 270.981818 
L 329.599274 246.436364 
L 301.256624 246.436364 
z
" clip-path="url(#p8a49e7ebb0)" style="fill: #0000ff; stroke: #000000; stroke-linejoin: miter"/>
   </g>
   <g id="patch_127">
    <path d="M 301.256624 246.436364 
L 329.599274 246.436364 
L 315.427949 221.890909 
z
" clip-path="url(#p8a49e7ebb0)" style="fill: #008000; stroke: #000000; stroke-linejoin: miter"/>
   </g>
   <g id="patch_128">
    <path d="M 329.599274 246.436364 
L 343.770598 221.890909 
L 315.427949 221.890909 
z
" clip-path="url(#p8a49e7ebb0)" style="fill: #ff0000; stroke: #000000; stroke-linejoin: miter"/>
   </g>
   <g id="patch_129">
    <path d="M 315.427949 221.890909 
L 343.770598 221.890909 
L 329.599274 197.345455 
z
" clip-path="url(#p8a49e7ebb0)" style="fill: #0000ff; stroke: #000000; stroke-linejoin: miter"/>
   </g>
   <g id="patch_130">
    <path d="M 287.085299 320.072727 
L 315.427949 320.072727 
L 301.256624 295.527273 
z
" clip-path="url(#p8a49e7ebb0)" style="fill: #008000; stroke: #000000; stroke-linejoin: miter"/>
   </g>
   <g id="patch_131">
    <path d="M 315.427949 320.072727 
L 329.599274 295.527273 
L 301.256624 295.527273 
z
" clip-path="url(#p8a49e7ebb0)" style="fill: #ffa500; stroke: #000000; stroke-linejoin: miter"/>
   </g>
   <g id="patch_132">
    <path d="M 301.256624 295.527273 
L 329.599274 295.527273 
L 315.427949 270.981818 
z
" clip-path="url(#p8a49e7ebb0)" style="fill: #0000ff; stroke: #000000; stroke-linejoin: miter"/>
   </g>
   <g id="patch_133">
    <path d="M 329.599274 295.527273 
L 343.770598 270.981818 
L 315.427949 270.981818 
z
" clip-path="url(#p8a49e7ebb0)" style="fill: #a52a2a; stroke: #000000; stroke-linejoin: miter"/>
   </g>
   <g id="patch_134">
    <path d="M 315.427949 270.981818 
L 343.770598 270.981818 
L 329.599274 246.436364 
z
" clip-path="url(#p8a49e7ebb0)" style="fill: #800080; stroke: #000000; stroke-linejoin: miter"/>
   </g>
   <g id="patch_135">
    <path d="M 343.770598 270.981818 
L 357.941923 246.436364 
L 329.599274 246.436364 
z
" clip-path="url(#p8a49e7ebb0)" style="fill: #800080; stroke: #000000; stroke-linejoin: miter"/>
   </g>
   <g id="patch_136">
    <path d="M 329.599274 246.436364 
L 357.941923 246.436364 
L 343.770598 221.890909 
z
" clip-path="url(#p8a49e7ebb0)" style="fill: #0000ff; stroke: #000000; stroke-linejoin: miter"/>
   </g>
   <g id="patch_137">
    <path d="M 315.427949 320.072727 
L 343.770598 320.072727 
L 329.599274 295.527273 
z
" clip-path="url(#p8a49e7ebb0)" style="fill: #0000ff; stroke: #000000; stroke-linejoin: miter"/>
   </g>
   <g id="patch_138">
    <path d="M 343.770598 320.072727 
L 357.941923 295.527273 
L 329.599274 295.527273 
z
" clip-path="url(#p8a49e7ebb0)" style="fill: #008000; stroke: #000000; stroke-linejoin: miter"/>
   </g>
   <g id="patch_139">
    <path d="M 329.599274 295.527273 
L 357.941923 295.527273 
L 343.770598 270.981818 
z
" clip-path="url(#p8a49e7ebb0)" style="fill: #ff0000; stroke: #000000; stroke-linejoin: miter"/>
   </g>
   <g id="patch_140">
    <path d="M 357.941923 295.527273 
L 372.113248 270.981818 
L 343.770598 270.981818 
z
" clip-path="url(#p8a49e7ebb0)" style="fill: #ff0000; stroke: #000000; stroke-linejoin: miter"/>
   </g>
   <g id="patch_141">
    <path d="M 343.770598 270.981818 
L 372.113248 270.981818 
L 357.941923 246.436364 
z
" clip-path="url(#p8a49e7ebb0)" style="fill: #800080; stroke: #000000; stroke-linejoin: miter"/>
   </g>
   <g id="patch_142">
    <path d="M 343.770598 320.072727 
L 372.113248 320.072727 
L 357.941923 295.527273 
z
" clip-path="url(#p8a49e7ebb0)" style="fill: #008000; stroke: #000000; stroke-linejoin: miter"/>
   </g>
   <g id="patch_143">
    <path d="M 372.113248 320.072727 
L 386.284573 295.527273 
L 357.941923 295.527273 
z
" clip-path="url(#p8a49e7ebb0)" style="fill: #0000ff; stroke: #000000; stroke-linejoin: miter"/>
   </g>
   <g id="patch_144">
    <path d="M 357.941923 295.527273 
L 386.284573 295.527273 
L 372.113248 270.981818 
z
" clip-path="url(#p8a49e7ebb0)" style="fill: #ff0000; stroke: #000000; stroke-linejoin: miter"/>
   </g>
   <g id="patch_145">
    <path d="M 372.113248 320.072727 
L 400.455898 320.072727 
L 386.284573 295.527273 
z
" clip-path="url(#p8a49e7ebb0)" style="fill: #0000ff; stroke: #000000; stroke-linejoin: miter"/>
   </g>
  </g>
 </g>
 <defs>
  <clipPath id="p8a49e7ebb0">
   <rect x="43.338513" y="10.8" width="374.122975" height="324"/>
  </clipPath>
 </defs>
</svg>
